G04*
G04 #@! TF.GenerationSoftware,Altium Limited,Altium Designer,20.1.7 (139)*
G04*
G04 Layer_Physical_Order=1*
G04 Layer_Color=255*
%FSLAX44Y44*%
%MOMM*%
G71*
G04*
G04 #@! TF.SameCoordinates,E8198626-57D4-45C4-B418-2AD32184AFD2*
G04*
G04*
G04 #@! TF.FilePolarity,Positive*
G04*
G01*
G75*
%ADD17R,0.5588X0.6858*%
%ADD18R,1.9000X1.9000*%
%ADD19R,1.4000X1.6000*%
%ADD20R,1.3500X0.4000*%
%ADD21R,0.6858X0.5588*%
%ADD22R,1.3000X0.7000*%
%ADD23R,1.3000X0.9000*%
%ADD24R,0.7000X1.3000*%
%ADD25R,1.0000X0.5500*%
%ADD26R,0.5500X1.5000*%
%ADD27R,0.9000X1.3000*%
%ADD28R,0.5500X1.0000*%
%ADD29R,1.5000X0.5500*%
%ADD30R,0.9000X0.6000*%
%ADD31R,3.5000X2.2000*%
%ADD32R,1.6000X3.0000*%
%ADD33R,0.6000X2.2000*%
%ADD34R,2.5000X2.6000*%
%ADD35R,2.6000X2.5000*%
%ADD36R,2.7000X2.0000*%
%ADD43R,0.8000X0.8000*%
%ADD65R,1.9000X1.9000*%
%ADD66C,1.9000*%
%ADD71C,1.0160*%
%ADD72C,0.3000*%
%ADD73C,0.4000*%
%ADD74O,1.6000X2.0000*%
%ADD75R,1.6000X2.0000*%
%ADD76C,3.2000*%
G04:AMPARAMS|DCode=77|XSize=2mm|YSize=1.2mm|CornerRadius=0.36mm|HoleSize=0mm|Usage=FLASHONLY|Rotation=0.000|XOffset=0mm|YOffset=0mm|HoleType=Round|Shape=RoundedRectangle|*
%AMROUNDEDRECTD77*
21,1,2.0000,0.4800,0,0,0.0*
21,1,1.2800,1.2000,0,0,0.0*
1,1,0.7200,0.6400,-0.2400*
1,1,0.7200,-0.6400,-0.2400*
1,1,0.7200,-0.6400,0.2400*
1,1,0.7200,0.6400,0.2400*
%
%ADD77ROUNDEDRECTD77*%
%ADD78R,1.7000X1.7000*%
%ADD79C,1.7000*%
%ADD80O,2.0000X1.6000*%
%ADD81R,2.0000X1.6000*%
%ADD82C,4.0000*%
%ADD83C,0.6000*%
D17*
X600808Y247500D02*
D03*
X625192D02*
D03*
D18*
X20500Y190000D02*
D03*
Y216000D02*
D03*
X247500Y79500D02*
D03*
D19*
X45000Y170000D02*
D03*
Y234000D02*
D03*
D20*
X47250Y189000D02*
D03*
Y195500D02*
D03*
Y202000D02*
D03*
Y208500D02*
D03*
Y215000D02*
D03*
D21*
X10500Y274808D02*
D03*
Y299192D02*
D03*
D22*
X674000Y246000D02*
D03*
Y227000D02*
D03*
X273000Y69500D02*
D03*
X257000Y150500D02*
D03*
X634000Y430500D02*
D03*
X28500Y276500D02*
D03*
X257000Y169500D02*
D03*
X582000Y470500D02*
D03*
X609000D02*
D03*
X634000Y411500D02*
D03*
X648000Y245000D02*
D03*
Y188500D02*
D03*
X609000Y451500D02*
D03*
X582000D02*
D03*
X175000Y380500D02*
D03*
X90000Y273500D02*
D03*
X218440Y278740D02*
D03*
Y259740D02*
D03*
X332000Y87500D02*
D03*
Y68500D02*
D03*
D03*
X273000Y50500D02*
D03*
X648000Y226000D02*
D03*
X28500Y295500D02*
D03*
X648000Y207500D02*
D03*
X90000Y254500D02*
D03*
X175000Y399500D02*
D03*
X332000Y49500D02*
D03*
D23*
X673500Y190000D02*
D03*
Y209000D02*
D03*
X232000Y102500D02*
D03*
X635000Y469500D02*
D03*
X232000Y121500D02*
D03*
X307000Y68500D02*
D03*
X359000D02*
D03*
X224000Y446500D02*
D03*
X218440Y316840D02*
D03*
X195580Y219100D02*
D03*
X218440D02*
D03*
X172720D02*
D03*
X221000Y200500D02*
D03*
X115000Y131500D02*
D03*
X210000Y121500D02*
D03*
X635000Y450500D02*
D03*
X115000Y112500D02*
D03*
X172720Y238100D02*
D03*
X436880Y56540D02*
D03*
X198120Y181000D02*
D03*
X221000Y181500D02*
D03*
X224000Y427500D02*
D03*
X307000Y49500D02*
D03*
X436880Y75540D02*
D03*
X198120Y200000D02*
D03*
X218440Y297840D02*
D03*
X195580Y238100D02*
D03*
X218440D02*
D03*
X359000Y49500D02*
D03*
X210000Y102500D02*
D03*
D24*
X290500Y90000D02*
D03*
X271500D02*
D03*
X103480Y190500D02*
D03*
Y213360D02*
D03*
X356260Y93980D02*
D03*
X375260D02*
D03*
X103500Y168000D02*
D03*
X9500Y256000D02*
D03*
X287000Y425000D02*
D03*
Y449000D02*
D03*
X266500Y450000D02*
D03*
X610500Y368000D02*
D03*
X84500Y168000D02*
D03*
X84480Y190500D02*
D03*
Y213360D02*
D03*
X603500Y230000D02*
D03*
X405180Y233680D02*
D03*
X424180D02*
D03*
X77000Y346000D02*
D03*
X96000D02*
D03*
X28500Y256000D02*
D03*
X591500Y368000D02*
D03*
X247500Y450000D02*
D03*
X622500Y230000D02*
D03*
X306000Y425000D02*
D03*
Y449000D02*
D03*
X149200Y210820D02*
D03*
X130200D02*
D03*
D25*
X234500Y151000D02*
D03*
Y160500D02*
D03*
X172500Y436000D02*
D03*
Y426500D02*
D03*
X207500Y141500D02*
D03*
X199500Y445500D02*
D03*
X234500Y141500D02*
D03*
X172500Y445500D02*
D03*
X207500Y160500D02*
D03*
X199500Y426500D02*
D03*
D26*
X158000Y258000D02*
D03*
X166000D02*
D03*
X150000D02*
D03*
X182000Y342000D02*
D03*
X166000D02*
D03*
X174000D02*
D03*
X150000D02*
D03*
X134000D02*
D03*
X126000D02*
D03*
X174000Y258000D02*
D03*
X182000D02*
D03*
X142000D02*
D03*
X158000Y342000D02*
D03*
X142000D02*
D03*
X126000Y258000D02*
D03*
X134000D02*
D03*
D27*
X421640Y259080D02*
D03*
X444500Y233680D02*
D03*
X262500Y482000D02*
D03*
X610500Y344000D02*
D03*
X228500Y339000D02*
D03*
X461620Y259080D02*
D03*
X670500Y126000D02*
D03*
X454660Y96520D02*
D03*
X457860Y73660D02*
D03*
X395500Y96000D02*
D03*
X241960Y231140D02*
D03*
X404500Y50000D02*
D03*
X395500Y73000D02*
D03*
X50500Y295500D02*
D03*
X149200Y236220D02*
D03*
X103500Y234000D02*
D03*
X39500Y510000D02*
D03*
X44500Y430000D02*
D03*
X402640Y259080D02*
D03*
X442620D02*
D03*
X84500Y234000D02*
D03*
X247500Y339000D02*
D03*
X260960Y231140D02*
D03*
X435660Y96520D02*
D03*
X243500Y482000D02*
D03*
X385500Y50000D02*
D03*
X457860Y50800D02*
D03*
X591500Y344000D02*
D03*
X69500Y295500D02*
D03*
X651500Y126000D02*
D03*
X20500Y510000D02*
D03*
X25500Y430000D02*
D03*
X476860Y50800D02*
D03*
X463500Y233680D02*
D03*
X476860Y73660D02*
D03*
X414500Y96000D02*
D03*
Y73000D02*
D03*
X130200Y236220D02*
D03*
D28*
X668500Y172500D02*
D03*
X47500Y250500D02*
D03*
X668500Y145500D02*
D03*
X659000Y172500D02*
D03*
X649500D02*
D03*
X47500Y277500D02*
D03*
X57000Y250500D02*
D03*
X66500D02*
D03*
X649500Y145500D02*
D03*
X66500Y277500D02*
D03*
D29*
X196000Y288000D02*
D03*
Y328000D02*
D03*
X112000Y272000D02*
D03*
Y296000D02*
D03*
Y304000D02*
D03*
Y312000D02*
D03*
Y320000D02*
D03*
Y328000D02*
D03*
X196000Y280000D02*
D03*
Y272000D02*
D03*
Y296000D02*
D03*
X112000Y288000D02*
D03*
Y280000D02*
D03*
X196000Y304000D02*
D03*
Y312000D02*
D03*
Y320000D02*
D03*
D30*
X66040Y223280D02*
D03*
Y178040D02*
D03*
Y193040D02*
D03*
Y208280D02*
D03*
D31*
X163000Y178000D02*
D03*
D32*
X73000Y136500D02*
D03*
X72000Y20500D02*
D03*
Y61500D02*
D03*
X73000Y95500D02*
D03*
D33*
X163000Y116000D02*
D03*
X150300D02*
D03*
X137600D02*
D03*
X188400D02*
D03*
X175700D02*
D03*
D34*
X407300Y292100D02*
D03*
X456300D02*
D03*
D35*
X251460Y308980D02*
D03*
Y259980D02*
D03*
D36*
X22000Y70000D02*
D03*
Y102000D02*
D03*
D43*
X596500Y389000D02*
D03*
X611500D02*
D03*
X264500Y427000D02*
D03*
X249500D02*
D03*
X250500Y400000D02*
D03*
X265500D02*
D03*
Y381000D02*
D03*
X250500D02*
D03*
D65*
X675500Y269000D02*
D03*
D66*
Y314000D02*
D03*
X610500D02*
D03*
Y269000D02*
D03*
X247500Y14500D02*
D03*
X202500D02*
D03*
Y79500D02*
D03*
D71*
X72500Y516500D02*
D03*
X669000Y506000D02*
D03*
X226000Y45000D02*
D03*
X669000Y20000D02*
D03*
D72*
X493650Y95850D02*
X508000Y81500D01*
Y25400D02*
Y81500D01*
X330200Y23400D02*
Y25400D01*
X350100Y3500D02*
X483243D01*
X330200Y23400D02*
X350100Y3500D01*
X362243Y423257D02*
X362603Y422897D01*
X416560Y477575D02*
Y508000D01*
X362243Y423257D02*
X416560Y477575D01*
X356000Y422429D02*
Y426571D01*
X391160Y461731D01*
Y508000D01*
X366571Y313429D02*
Y368582D01*
X356000Y422429D02*
X356706Y421723D01*
X362603Y372550D02*
X366571Y368582D01*
X356706Y310635D02*
Y421723D01*
X362603Y372550D02*
Y422897D01*
X319000Y272929D02*
X356706Y310635D01*
X257000Y169500D02*
Y196500D01*
X473000Y446000D02*
X518000D01*
X457200Y461800D02*
X473000Y446000D01*
X518000D02*
X526500Y437500D01*
X524743Y361500D02*
X526500Y363257D01*
Y437500D01*
X532500Y357757D02*
Y438571D01*
X516205Y454866D02*
X532500Y438571D01*
X470500Y361500D02*
X524743D01*
X490834Y454866D02*
X516205D01*
X463500Y354500D02*
X470500Y361500D01*
X458000Y341500D02*
X472500Y356000D01*
X530743D01*
X532500Y357757D01*
X410000Y354500D02*
X463500D01*
X408784Y341500D02*
X458000D01*
X508000Y461624D02*
Y508000D01*
X520205Y459866D02*
X539500Y440571D01*
X509757Y459866D02*
X520205D01*
X508000Y461624D02*
X509757Y459866D01*
X537794Y350757D02*
Y430254D01*
X539500Y431960D02*
Y440571D01*
X537794Y430254D02*
X539500Y431960D01*
X549500Y344449D02*
Y496700D01*
X544500Y350393D02*
Y447800D01*
X533400Y458900D02*
X544500Y447800D01*
X554500Y439263D02*
X564000Y448763D01*
X549500Y496700D02*
X558800Y506000D01*
X554500Y298300D02*
Y439263D01*
X558800Y506000D02*
Y508000D01*
X544450Y288250D02*
X554500Y298300D01*
X520000Y314949D02*
X549500Y344449D01*
X515000Y320893D02*
X544500Y350393D01*
X536036Y349000D02*
X537794Y350757D01*
X481500Y349000D02*
X536036D01*
X515000Y225280D02*
Y320893D01*
X520000Y202880D02*
Y314949D01*
X460500Y328000D02*
X481500Y349000D01*
X346500Y486740D02*
X365760Y506000D01*
X317803Y278803D02*
X346500Y307500D01*
Y486740D01*
X341500Y363000D02*
Y451000D01*
X325000Y467500D02*
X341500Y451000D01*
X309000Y330500D02*
X341500Y363000D01*
X365760Y506000D02*
Y508000D01*
X402355Y328000D02*
X460500D01*
X544450Y201930D02*
Y288250D01*
X493650Y203930D02*
X515000Y225280D01*
X564000Y448763D02*
Y488500D01*
X519050Y201930D02*
X520000Y202880D01*
X482600Y463100D02*
X490834Y454866D01*
X117860Y213360D02*
X119500Y215000D01*
X103480Y213360D02*
X117860D01*
X650750Y165721D02*
X654500Y161970D01*
Y158000D02*
Y161970D01*
X165692Y202000D02*
X171192Y207500D01*
X156500Y205807D02*
X160307Y202000D01*
X165692D01*
X257000Y150500D02*
X257314D01*
X259314Y148500D01*
Y133399D02*
Y148500D01*
X240950Y147750D02*
X252814Y135886D01*
Y130706D02*
X255000Y128520D01*
X252814Y130706D02*
Y135886D01*
X255000Y116308D02*
Y128520D01*
X206680Y142320D02*
X207500Y141500D01*
X194320Y146000D02*
X198000Y142320D01*
X187500Y146000D02*
X194320D01*
X198000Y142320D02*
X206680D01*
X269950Y11900D02*
X309563D01*
X267900Y13950D02*
X269950Y11900D01*
X316300Y18637D02*
Y23643D01*
X309563Y11900D02*
X316300Y18637D01*
Y23643D02*
X318057Y25400D01*
X267900Y13950D02*
Y19600D01*
X318057Y25400D02*
X330200D01*
X257000Y30500D02*
X267900Y19600D01*
X109000Y148500D02*
X115500Y142000D01*
X140000D01*
X103480Y190500D02*
X121500D01*
X91500Y275000D02*
Y288000D01*
X90000Y273500D02*
X91500Y275000D01*
X86500Y368500D02*
X87800Y369800D01*
X254574Y370074D02*
X265500Y381000D01*
X254574Y369074D02*
Y370074D01*
X254000Y368500D02*
X254574Y369074D01*
X272808Y373000D02*
X273000D01*
X282000Y363808D02*
Y365000D01*
X269618Y352618D02*
X277000Y360000D01*
X269000Y367071D02*
Y369192D01*
X282000Y365000D02*
X292500Y375500D01*
X269000Y369192D02*
X272808Y373000D01*
X277000Y360000D02*
X278192D01*
X282000Y363808D01*
X263417Y361488D02*
X269000Y367071D01*
X273000Y373000D02*
Y405450D01*
X187559Y361488D02*
X263417D01*
X287000Y384692D02*
Y425000D01*
X281250Y378942D02*
X287000Y384692D01*
X281250Y372250D02*
Y378942D01*
X275500Y366500D02*
X281250Y372250D01*
X426100Y254080D02*
X444500Y235680D01*
X424640Y254080D02*
X426100D01*
X421640Y257080D02*
X424640Y254080D01*
X421640Y257080D02*
Y259080D01*
X442620D02*
Y261080D01*
X424180Y230680D02*
Y236680D01*
X413640Y267030D02*
X415690Y269080D01*
X434620D02*
X442620Y261080D01*
X413640Y247220D02*
Y267030D01*
X444500Y233680D02*
Y235680D01*
X415690Y269080D02*
X434620D01*
X413640Y247220D02*
X424180Y236680D01*
X442620Y259080D02*
Y261080D01*
X288500Y69500D02*
X288700Y69700D01*
X533400Y458900D02*
Y508000D01*
X562500Y328178D02*
Y431808D01*
X561000Y433308D02*
Y438692D01*
Y433308D02*
X562500Y431808D01*
Y328178D02*
X569850Y320828D01*
X278000Y116849D02*
X282619Y112230D01*
X273950Y171004D02*
Y221109D01*
X273000Y114778D02*
Y164883D01*
X251192Y112500D02*
X255000Y116308D01*
X273950Y171004D02*
X278000Y166954D01*
X268950Y223180D02*
X269000Y223230D01*
X240000Y147750D02*
X240950D01*
X239950Y113500D02*
X240950Y112500D01*
X269000Y247651D02*
X291849Y270500D01*
X273000Y114778D02*
X280778Y107000D01*
X278000Y116849D02*
Y166954D01*
X274000Y221159D02*
Y245580D01*
X268950Y168933D02*
Y223180D01*
X269000Y223230D02*
Y247651D01*
X236750Y151000D02*
X240000Y147750D01*
X240950Y112500D02*
X251192D01*
X274000Y245580D02*
X293920Y265500D01*
X273950Y221109D02*
X274000Y221159D01*
X268950Y168933D02*
X273000Y164883D01*
X234500Y151000D02*
X236750D01*
X174420Y207500D02*
X174789Y207132D01*
X171192Y207500D02*
X174420D01*
X162720Y208779D02*
X163000Y208500D01*
X162720Y208779D02*
Y244050D01*
X156500Y205807D02*
Y211192D01*
X285808Y275500D02*
X291192D01*
X293263Y270500D02*
X300000Y277237D01*
X316500Y278803D02*
X317803D01*
X291192Y288500D02*
X295000Y284692D01*
Y279308D02*
Y284692D01*
X291192Y275500D02*
X295000Y279308D01*
X291849Y270500D02*
X293263D01*
X293920Y265500D02*
X295334D01*
X304000Y289834D02*
X305000Y288834D01*
X295991Y260500D02*
X297405D01*
X310000Y273095D02*
Y290905D01*
X316500Y278803D02*
Y279621D01*
X284808Y276500D02*
X285808Y275500D01*
X280298Y297980D02*
X289778Y288500D01*
X232258Y276500D02*
X284808D01*
X300000Y277237D02*
Y286763D01*
X299000Y287763D02*
X300000Y286763D01*
X279000Y243509D02*
X295991Y260500D01*
X309000Y291905D02*
Y330500D01*
X297405Y260500D02*
X310000Y273095D01*
X309000Y291905D02*
X310000Y290905D01*
X289778Y288500D02*
X291192D01*
X299000Y287763D02*
Y334642D01*
X304000Y289834D02*
Y332571D01*
X295334Y265500D02*
X305000Y275166D01*
Y288834D01*
X279000Y219088D02*
Y243509D01*
X230018Y278740D02*
X232258Y276500D01*
X262460Y297980D02*
X280298D01*
X280778Y107000D02*
X343240D01*
X299000Y334642D02*
X326000Y361642D01*
X304000Y332571D02*
X332500Y361071D01*
X251460Y308980D02*
X262460Y297980D01*
X218440Y278740D02*
X230018D01*
X162500Y460500D02*
X177000Y475000D01*
X208639D01*
X221139Y462500D01*
X252778D02*
X262278Y472000D01*
X221139Y462500D02*
X252778D01*
X262278Y472000D02*
X268450D01*
X162500Y442800D02*
Y460500D01*
X268450Y472000D02*
X277761Y481311D01*
X78808Y434500D02*
X79308Y435000D01*
X63000Y434500D02*
X78808D01*
X79308Y435000D02*
X84692D01*
X41000Y456500D02*
X63000Y434500D01*
X84692Y435000D02*
X85192Y434500D01*
X157450D01*
X57100Y498000D02*
X88142D01*
X118642Y467500D01*
X151500D01*
X46300Y469200D02*
X47000Y468500D01*
X36729Y469200D02*
X46300D01*
X47000Y468500D02*
X110571D01*
X29000Y461471D02*
X36729Y469200D01*
X110571Y468500D02*
X118571Y460500D01*
X614722Y105000D02*
X620650Y110928D01*
X603500Y93778D02*
X609500Y99778D01*
Y101192D02*
X613308Y105000D01*
X614722D01*
X609500Y99778D02*
Y101192D01*
X620650Y110928D02*
Y125730D01*
X603500Y70722D02*
Y93778D01*
X627644Y137000D02*
X645300D01*
X481257Y141000D02*
X623643D01*
X627644Y137000D01*
X569850Y201930D02*
Y320828D01*
X577500Y243660D02*
Y332116D01*
X572500Y337116D02*
X577500Y332116D01*
Y243660D02*
X595250Y225910D01*
Y201930D02*
Y225910D01*
X610500Y269000D02*
X675500D01*
X674000Y246000D02*
X675500Y247500D01*
Y269000D01*
X648500Y245500D02*
X673500D01*
X674000Y246000D01*
X311500Y390807D02*
Y394500D01*
X317000Y400000D01*
X296192Y375500D02*
X311500Y390807D01*
X271345Y413152D02*
X271919Y412578D01*
Y406531D02*
X273000Y405450D01*
X271919Y406531D02*
Y412578D01*
X292500Y375500D02*
X296192D01*
X567500Y436000D02*
Y437000D01*
X577000Y446500D02*
Y449500D01*
X567500Y437000D02*
X577000Y446500D01*
X572500Y337116D02*
Y410808D01*
Y417192D02*
Y425571D01*
X572000Y411308D02*
Y416692D01*
X572500Y417192D01*
X572000Y411308D02*
X572500Y410808D01*
Y425571D02*
X581500Y434571D01*
X208500Y419000D02*
X212500Y415000D01*
X208500Y419000D02*
Y430200D01*
X203000Y435700D02*
X208500Y430200D01*
X212500Y415000D02*
X237500D01*
X177500Y413000D02*
Y414500D01*
X66400Y456500D02*
X88844D01*
X92844Y460500D01*
X111500D01*
X126000Y446000D01*
X118571Y460500D02*
X154000D01*
X126000Y446000D02*
X146000D01*
X171000Y406500D02*
X177500Y413000D01*
X203000Y435700D02*
Y444250D01*
X201750Y445500D02*
X203000Y444250D01*
X199500Y445500D02*
X201750D01*
X74143Y278135D02*
Y284193D01*
X78778Y273500D02*
X90000D01*
X74143Y278135D02*
X78778Y273500D01*
X59872Y288922D02*
Y301821D01*
X74143Y284193D02*
X77500Y287550D01*
X59400Y315500D02*
X79592D01*
X77521Y310500D02*
X92021Y296000D01*
X45000Y345400D02*
X64900Y325500D01*
X63551Y305500D02*
X75450D01*
X47679Y317321D02*
X57578D01*
X57705Y310500D02*
X77521D01*
X47500Y277500D02*
Y279750D01*
X79592Y315500D02*
X91092Y304000D01*
X66971Y330500D02*
X85805D01*
X66136Y341914D02*
X72550Y335500D01*
X91092Y304000D02*
X112000D01*
X60000Y337471D02*
X66971Y330500D01*
X45000Y320000D02*
X47679Y317321D01*
X64900Y325500D02*
X83734D01*
X56193Y285243D02*
X59872Y288922D01*
X104300Y335500D02*
X110800Y342000D01*
X90163Y312000D02*
X112000D01*
X31600Y308000D02*
X55205D01*
X61471Y320500D02*
X81663D01*
X75450Y305500D02*
X77500Y303450D01*
X89234Y320000D02*
X112000D01*
X85805Y330500D02*
X88305Y328000D01*
X92021Y296000D02*
X112000D01*
X19600Y320000D02*
X31600Y308000D01*
X47500Y279750D02*
X52993Y285243D01*
X88305Y328000D02*
X112000D01*
X55205Y308000D02*
X57705Y310500D01*
X52993Y285243D02*
X56193D01*
X83734Y325500D02*
X89234Y320000D01*
X59872Y301821D02*
X63551Y305500D01*
X57578Y317321D02*
X59400Y315500D01*
X77500Y287550D02*
Y303450D01*
X72550Y335500D02*
X104300D01*
X81663Y320500D02*
X90163Y312000D01*
X49971Y332000D02*
X61471Y320500D01*
X293313Y91500D02*
X304500D01*
X291157Y89343D02*
X293313Y91500D01*
X290500Y90000D02*
X291157Y89343D01*
X609600Y25400D02*
Y27400D01*
X618911Y55311D02*
X619589D01*
X635000Y39900D01*
X595250Y101250D02*
X598500Y98000D01*
Y38500D02*
X609600Y27400D01*
X598500Y38500D02*
Y98000D01*
X603500Y70722D02*
X618911Y55311D01*
X635000Y25400D02*
Y39900D01*
X595250Y101250D02*
Y125730D01*
X650750Y165721D02*
Y169000D01*
X667250Y142000D02*
X668500Y143250D01*
Y145500D01*
X658775Y142000D02*
X667250D01*
X653775Y137000D02*
X658775Y142000D01*
X645300Y137000D02*
X653775D01*
X649500Y170250D02*
Y187000D01*
X628879Y146378D02*
X635921D01*
X619500Y155757D02*
X628879Y146378D01*
X648000Y188500D02*
X649500Y187000D01*
Y170250D02*
X650750Y169000D01*
X635921Y146378D02*
X645300Y137000D01*
X603500Y219080D02*
Y230000D01*
X76500Y361500D02*
X131314D01*
X76000Y362000D02*
X76500Y361500D01*
X131314D02*
X134514Y358300D01*
X87800Y369800D02*
X146000D01*
X41273Y362957D02*
X56464D01*
X38400Y357400D02*
X54950D01*
X60000Y337471D02*
Y352350D01*
X58535Y367957D02*
X75000Y351492D01*
X56464Y362957D02*
X66136Y353285D01*
X54950Y357400D02*
X60000Y352350D01*
X66136Y341914D02*
Y353285D01*
X131743Y354000D02*
X132750Y352993D01*
X98000Y351000D02*
X101000D01*
X104000Y354000D01*
X132750Y343250D02*
Y352993D01*
X104000Y354000D02*
X131743D01*
X152764Y358300D02*
X159500Y365037D01*
X134514Y358300D02*
X152764D01*
X164500Y362966D02*
Y373000D01*
X159500Y365037D02*
Y399964D01*
X154101Y353300D02*
X154835D01*
X151250Y350450D02*
X154101Y353300D01*
X164500Y373000D02*
X172000Y380500D01*
X147758Y406700D02*
X152764D01*
X159500Y399964D01*
X154835Y353300D02*
X164500Y362966D01*
X146000Y408457D02*
Y420600D01*
Y408457D02*
X147758Y406700D01*
X166000Y356551D02*
X192000Y382551D01*
X166000Y342000D02*
Y356551D01*
X257000Y195500D02*
Y196500D01*
X257000Y196500D01*
X234500Y151000D02*
Y160500D01*
X234000Y113500D02*
X239950D01*
X232000Y102500D02*
Y111500D01*
X234000Y113500D01*
X271500Y90000D02*
Y93000D01*
X262000Y102500D02*
X271500Y93000D01*
X232000Y102500D02*
X262000D01*
X273000Y69500D02*
X288500D01*
X247500Y79500D02*
X255500Y71500D01*
X260000D01*
X262000Y69500D01*
X273000D01*
X247500Y14500D02*
Y79500D01*
X343240Y107000D02*
X351260Y98980D01*
X282619Y112230D02*
X355150D01*
X156500Y211192D02*
X157720Y212412D01*
Y246121D01*
X158000Y246401D01*
Y258000D01*
X75000Y245500D02*
X84500Y236000D01*
X69250Y245500D02*
X75000D01*
X66500Y248250D02*
X69250Y245500D01*
X162720Y244050D02*
X166000Y247330D01*
Y258000D01*
X62091Y184540D02*
X75490D01*
X79530Y180500D01*
X94000D02*
X103500Y171000D01*
Y168000D02*
Y171000D01*
X47250Y202000D02*
X58500D01*
X63040Y197460D01*
X57520Y189110D02*
Y192430D01*
X79530Y180500D02*
X94000D01*
X63040Y194540D02*
Y197460D01*
X64540Y193040D02*
X82480D01*
X47750Y195000D02*
X54950D01*
X57520Y192430D01*
X47250Y195500D02*
X47750Y195000D01*
X57520Y189110D02*
X62091Y184540D01*
X66040Y208280D02*
X67540D01*
X63040Y194540D02*
X64540Y193040D01*
X72620Y213360D02*
X84480D01*
X67540Y208280D02*
X72620Y213360D01*
X82480Y193040D02*
X84480Y191040D01*
Y190500D02*
Y191040D01*
X47250Y208500D02*
X47360Y208390D01*
X65930D01*
X66040Y208280D01*
X66500Y248250D02*
Y250500D01*
X84500Y234000D02*
Y236000D01*
X57000Y250500D02*
X66500D01*
X28500Y256000D02*
X39600D01*
X42600Y259000D01*
X51700D01*
X53750Y256950D01*
Y256000D02*
Y256950D01*
Y256000D02*
X57000Y252750D01*
Y250500D02*
Y252750D01*
X10000Y274308D02*
X10500Y274808D01*
X10000Y256500D02*
Y274308D01*
X9500Y256000D02*
X10000Y256500D01*
X12827Y276500D02*
X28500D01*
X11135Y274808D02*
X12827Y276500D01*
X10500Y274808D02*
X11135D01*
X110750Y273250D02*
X112000Y272000D01*
X101250Y273250D02*
X110750D01*
X101000Y273500D02*
X101250Y273250D01*
X90000Y273500D02*
X101000D01*
X251460Y259980D02*
X260960Y250480D01*
Y231140D02*
Y250480D01*
X218440Y259740D02*
X251220D01*
X251460Y259980D01*
X196000Y272000D02*
X200750D01*
X206139Y266611D01*
Y261861D02*
Y266611D01*
Y261861D02*
X208260Y259740D01*
X218440D01*
X251460Y308980D02*
Y333040D01*
X247500Y337000D02*
X251460Y333040D01*
X247500Y337000D02*
Y339000D01*
X196000Y280000D02*
X196630Y279370D01*
X217810D01*
X218440Y278740D01*
X200000Y381000D02*
X250500D01*
X174000Y355000D02*
X200000Y381000D01*
X182000Y342000D02*
Y355929D01*
X187559Y361488D01*
X174000Y342000D02*
Y355000D01*
X192000Y382551D02*
Y392000D01*
X200000Y400000D02*
X250500D01*
X192000Y392000D02*
X200000Y400000D01*
X172000Y380500D02*
X175000D01*
X165000Y394550D02*
X168025Y391525D01*
X171975D01*
X175000Y380500D02*
Y388500D01*
X165000Y394550D02*
Y404450D01*
X167050Y406500D01*
X171975Y391525D02*
X175000Y388500D01*
X167050Y406500D02*
X171000D01*
X264845Y400655D02*
Y415844D01*
X268501Y419500D02*
X269950D01*
X277000Y426550D01*
Y438500D01*
X264845Y400655D02*
X265500Y400000D01*
X264845Y415844D02*
X268501Y419500D01*
X193000Y350861D02*
X194757Y352618D01*
X193000Y329250D02*
Y350861D01*
X194757Y352618D02*
X269618D01*
X237500Y415000D02*
X249500Y427000D01*
X194250Y328000D02*
X196000D01*
X193000Y329250D02*
X194250Y328000D01*
X287000Y446000D02*
Y449000D01*
X281621Y440621D02*
X287000Y446000D01*
X279121Y440621D02*
X281621D01*
X277000Y438500D02*
X279121Y440621D01*
X326000Y361642D02*
Y451500D01*
X309500Y475071D02*
X332500Y452071D01*
Y361071D02*
Y452071D01*
X289000Y488500D02*
X326000Y451500D01*
X264500Y427000D02*
X265500Y428000D01*
Y449000D01*
X266500Y450000D01*
X36450Y332000D02*
X49971D01*
X19600Y345400D02*
X23388D01*
X29031Y339757D01*
X31243D01*
X33000Y338000D01*
Y335450D02*
Y338000D01*
Y335450D02*
X36450Y332000D01*
X75000Y348000D02*
Y351492D01*
X30100Y374129D02*
Y392500D01*
Y374129D02*
X41273Y362957D01*
X42100Y379100D02*
X53243Y367957D01*
X58535D01*
X75000Y348000D02*
X77000Y346000D01*
X16700Y379100D02*
X38400Y357400D01*
X132750Y343250D02*
X134000Y342000D01*
X96000Y346000D02*
Y349000D01*
X98000Y351000D01*
X110800Y342000D02*
X126000D01*
X30100Y392500D02*
X42100Y404500D01*
X145700Y395500D02*
X146000Y395200D01*
X83900Y395500D02*
X145700D01*
X67500Y379100D02*
X83900Y395500D01*
X289000Y488500D02*
Y505440D01*
X289560Y506000D01*
X277761Y494201D02*
X289000Y505440D01*
X158950Y436000D02*
X170250D01*
X289560Y506000D02*
Y508000D01*
X277761Y481311D02*
Y494201D01*
X173500Y480000D02*
X224000D01*
X154000Y460500D02*
X173500Y480000D01*
X151500Y467500D02*
X169000Y485000D01*
X183223D01*
X199460Y501237D01*
X170250Y436000D02*
X172500D01*
X167000Y439250D02*
X170250Y436000D01*
X166050Y439250D02*
X167000D01*
X162500Y442800D02*
X166050Y439250D01*
X172500Y426500D02*
Y436000D01*
X157450Y434500D02*
X158950Y436000D01*
X234997Y522500D02*
X313203D01*
X314960Y508000D02*
Y520743D01*
X313203Y522500D02*
X314960Y520743D01*
X227260Y514763D02*
X234997Y522500D01*
X340360Y508000D02*
Y510000D01*
X214597Y527500D02*
X322860D01*
X340360Y510000D01*
X199460Y512363D02*
X214597Y527500D01*
X224000Y480000D02*
X227260Y483260D01*
Y514763D01*
X199460Y501237D02*
Y512363D01*
X309500Y475071D02*
Y499500D01*
X41000Y481900D02*
X57100Y498000D01*
X27243Y456500D02*
X29000Y458257D01*
X15600Y456500D02*
X27243D01*
X29000Y458257D02*
Y461471D01*
X417450Y223950D02*
X424180Y230680D01*
X417450Y201930D02*
Y223950D01*
X456300Y274600D02*
Y292100D01*
X445780Y264080D02*
X456300Y274600D01*
X445620Y264080D02*
X445780D01*
X442620Y261080D02*
X445620Y264080D01*
X405180Y217060D02*
Y233680D01*
X392050Y203930D02*
X405180Y217060D01*
X392050Y201930D02*
Y203930D01*
X402640Y239220D02*
Y259080D01*
Y239220D02*
X405180Y236680D01*
Y233680D02*
Y236680D01*
X407300Y265740D02*
Y292100D01*
X402640Y261080D02*
X407300Y265740D01*
X402640Y259080D02*
Y261080D01*
X659000Y172500D02*
Y196500D01*
X671500Y209000D01*
X673500D01*
X674000Y209500D02*
Y227000D01*
X673500Y209000D02*
X674000Y209500D01*
X625192Y247500D02*
X642500D01*
X645000Y245000D01*
X648000D01*
X648500Y245500D01*
X610500Y368000D02*
X611000Y368500D01*
Y388500D01*
X611500Y389000D01*
X647500Y418200D02*
X662000D01*
X639000Y426700D02*
X647500Y418200D01*
X639000Y426700D02*
Y428500D01*
X637000Y430500D02*
X639000Y428500D01*
X634000Y430500D02*
X637000D01*
X635500Y469000D02*
X662000D01*
X635000Y469500D02*
X635500Y469000D01*
X622000Y444000D02*
X622812D01*
X623684Y444872D02*
X627372D01*
X622812Y444000D02*
X623684Y444872D01*
X627372D02*
X633000Y450500D01*
X596846Y422466D02*
X597881Y423500D01*
X602192Y426000D02*
X612500D01*
X597881Y423500D02*
X599692D01*
X602192Y426000D01*
X604308Y451500D02*
X609000D01*
X590807Y438000D02*
X604308Y451500D01*
X588000Y438000D02*
X590807D01*
X581500Y434571D02*
Y440692D01*
X596846Y421654D02*
Y422466D01*
X612500Y426000D02*
X624500Y438000D01*
X638450D02*
X644050Y443600D01*
X624500Y438000D02*
X638450D01*
X589949Y444500D02*
X592000Y446550D01*
X585308Y444500D02*
X589949D01*
X592000Y446550D02*
Y456500D01*
X581500Y440692D02*
X585308Y444500D01*
X620650Y201930D02*
Y203930D01*
X609825Y214755D02*
X620650Y203930D01*
X607825Y214755D02*
X609825D01*
X603500Y219080D02*
X607825Y214755D01*
X619500Y200780D02*
X620650Y201930D01*
X619500Y155757D02*
Y200780D01*
X479500Y139243D02*
X481257Y141000D01*
X479500Y132743D02*
Y139243D01*
X479750Y99250D02*
Y132493D01*
X479500Y132743D02*
X479750Y132493D01*
Y99250D02*
X495500Y83500D01*
X485000Y38000D02*
X495500Y48500D01*
Y83500D01*
X485000Y5257D02*
Y38000D01*
X483243Y3500D02*
X485000Y5257D01*
X150000Y342000D02*
X151250Y343250D01*
Y350450D01*
X633000Y450500D02*
X635000D01*
X644050Y443600D02*
X662000D01*
X561000Y438692D02*
X564808Y442500D01*
X565929D01*
X569850Y446421D01*
Y465350D01*
X577000Y449500D02*
X579000Y451500D01*
X582000D01*
X569850Y465350D02*
X573000Y468500D01*
X606000Y470500D02*
X612000D01*
X592000Y456500D02*
X606000Y470500D01*
X564000Y488500D02*
X583500Y508000D01*
X582000Y470500D02*
Y478500D01*
X609600Y506100D01*
Y508000D01*
X315850Y125730D02*
Y127730D01*
X328000Y139880D01*
Y183000D01*
X355150Y112230D02*
X366650Y123730D01*
X351260Y98980D02*
X354260D01*
X356260Y96980D01*
Y93980D02*
Y96980D01*
X306762Y188430D02*
X324238D01*
X331762D02*
X339493D01*
X325308Y189500D02*
X330692D01*
X331762Y188430D01*
X324238D02*
X325308Y189500D01*
X319000Y270808D02*
Y272929D01*
X313071Y267000D02*
X315192D01*
X297500Y251429D02*
X313071Y267000D01*
X324000Y268737D02*
Y270858D01*
Y261293D02*
Y261666D01*
X305000Y251858D02*
X315142Y262000D01*
X324000Y270858D02*
X366571Y313429D01*
X315192Y267000D02*
X319000Y270808D01*
X329000Y266666D02*
Y268787D01*
X317263Y262000D02*
X324000Y268737D01*
X315142Y262000D02*
X317263D01*
X329000Y268787D02*
X410000Y349787D01*
X324000Y261666D02*
X329000Y266666D01*
X366500Y202080D02*
Y292145D01*
X305000Y237429D02*
Y251858D01*
X297500Y242000D02*
Y251429D01*
X366500Y292145D02*
X402355Y328000D01*
X340500Y273216D02*
X408784Y341500D01*
X340500Y202680D02*
Y273216D01*
X410000Y349787D02*
Y354500D01*
X315850Y253143D02*
X324000Y261293D01*
X297500Y239500D02*
X297507Y239507D01*
Y241993D01*
X297500Y242000D02*
X297507Y241993D01*
X315850Y201930D02*
Y253143D01*
X290450Y125730D02*
Y170450D01*
X303000Y183000D01*
X281277Y188430D02*
X299238D01*
X300308Y189500D02*
X305692D01*
X306762Y188430D01*
X299238D02*
X300308Y189500D01*
X339493Y188430D02*
X341250Y186673D01*
Y125730D02*
Y186673D01*
X278950Y190757D02*
Y219038D01*
Y190757D02*
X281277Y188430D01*
X290450Y201930D02*
Y222879D01*
X305000Y237429D01*
X278950Y219038D02*
X279000Y219088D01*
X314485Y508000D02*
X314960D01*
X307743Y501257D02*
X309500Y499500D01*
X307743Y501257D02*
X314485Y508000D01*
X338842D02*
X340360D01*
X329849Y499006D02*
X338842Y508000D01*
X329506Y499006D02*
X329849D01*
X325000Y494500D02*
X329506Y499006D01*
X325000Y467500D02*
Y494500D01*
X340500Y202680D02*
X341250Y201930D01*
X392050Y123730D02*
Y125730D01*
X375260Y106940D02*
X392050Y123730D01*
X375260Y93980D02*
Y106940D01*
X366650Y123730D02*
Y125730D01*
X584200Y25400D02*
Y86800D01*
X569850Y101150D02*
X584200Y86800D01*
X569850Y101150D02*
Y125730D01*
X556500Y27700D02*
X558800Y25400D01*
X556500Y27700D02*
Y85500D01*
X544450Y97550D02*
Y125730D01*
Y97550D02*
X556500Y85500D01*
X533400Y25400D02*
Y85100D01*
X519050Y99450D02*
X533400Y85100D01*
X519050Y99450D02*
Y125730D01*
X493650Y95850D02*
Y125730D01*
X457200Y461800D02*
Y508000D01*
X482600Y463100D02*
Y508000D01*
X366500Y202080D02*
X366650Y201930D01*
X612000Y470500D02*
X614000Y472500D01*
Y475500D01*
X628500Y490000D01*
Y501500D01*
X635000Y508000D01*
X580000Y468500D02*
X582000Y470500D01*
X573000Y468500D02*
X580000D01*
X583500Y508000D02*
X584200D01*
X493650Y201930D02*
Y203930D01*
D73*
X167000Y88000D02*
Y93247D01*
X174700Y100947D01*
Y115000D01*
X175700Y116000D01*
X191101Y96500D02*
X191483Y96117D01*
Y90517D02*
Y96117D01*
Y90517D02*
X202500Y79500D01*
Y14500D02*
Y79500D01*
X321328Y57172D02*
Y72172D01*
X295657Y79500D02*
X298500Y82343D01*
X311157D01*
X321328Y72172D01*
X264000Y81843D02*
Y87657D01*
X332000Y49500D02*
X358100D01*
X329000D02*
X332000D01*
X266343Y79500D02*
X295657D01*
X257657Y94000D02*
X264000Y87657D01*
Y81843D02*
X266343Y79500D01*
X321328Y57172D02*
X329000Y49500D01*
X210000Y102500D02*
X212000D01*
X220500Y94000D01*
X257657D01*
X188400Y108000D02*
Y116000D01*
Y108000D02*
X189400Y107000D01*
X203500D01*
X208000Y102500D01*
X210000D01*
X175700Y116000D02*
X188400D01*
X358100Y49500D02*
X359000D01*
X355600Y25400D02*
Y47000D01*
X358100Y49500D01*
X455500Y154500D02*
X468250Y167250D01*
Y201930D01*
X150692Y196500D02*
X172000D01*
X149200Y197992D02*
X150692Y196500D01*
X149200Y197992D02*
Y210820D01*
X172000Y196500D02*
X172500Y197000D01*
X70500Y226240D02*
Y236500D01*
X67540Y223280D02*
X70500Y226240D01*
X57540Y228540D02*
X59500Y230500D01*
Y236500D01*
X476860Y50800D02*
Y73660D01*
X475633Y74887D02*
X476860Y73660D01*
X475633Y74887D02*
Y94175D01*
X475250Y94558D02*
X475633Y94175D01*
X248500Y119000D02*
Y127242D01*
X236750Y141500D02*
X247314Y130936D01*
Y128428D02*
Y130936D01*
Y128428D02*
X248500Y127242D01*
X174281Y139887D02*
X174334Y139834D01*
X190635Y139236D02*
X193306D01*
X191293Y152972D02*
Y153044D01*
Y152972D02*
X191383Y152883D01*
X184601Y139000D02*
X190399D01*
X180500Y143101D02*
Y148899D01*
X182000Y150400D01*
X180500Y143101D02*
X184601Y139000D01*
X182000Y150400D02*
Y158000D01*
X190399Y139000D02*
X190635Y139236D01*
X150300Y134300D02*
X176343Y160343D01*
X179657D01*
X182000Y158000D01*
X194383Y152883D02*
X198500Y157000D01*
X193306Y139236D02*
X197792Y134750D01*
X191383Y152883D02*
X194383D01*
X198500Y157000D02*
Y164907D01*
X197792Y134750D02*
X214157D01*
X220500Y141093D02*
Y159907D01*
X227843Y167250D01*
X214157Y134750D02*
X220500Y141093D01*
X227843Y167250D02*
X241157D01*
X75059Y97559D02*
X85825D01*
X88113Y99846D01*
X88654D01*
X115000Y112500D02*
X136600D01*
X137600Y113500D01*
Y116000D01*
X113000Y112500D02*
X115000D01*
X113000Y131500D02*
X115000D01*
X86000Y158500D02*
Y166500D01*
X86000D02*
X86000D01*
Y158500D02*
X113000Y131500D01*
X113616Y255646D02*
X115500D01*
X291000Y58500D02*
X295000D01*
X290500Y58000D02*
X291000Y58500D01*
X305000Y68500D02*
X307000D01*
X295000Y58500D02*
X305000Y68500D01*
X595000Y390500D02*
X596500Y389000D01*
X586383Y399117D02*
X595000Y390500D01*
X586383Y399117D02*
Y402617D01*
X586000Y403000D02*
X586383Y402617D01*
X483000Y295979D02*
Y329000D01*
Y295979D02*
X485000Y293979D01*
Y261500D02*
Y293979D01*
X461620Y259080D02*
X482580D01*
X485000Y261500D01*
X210041Y339000D02*
X228500D01*
X208541Y340500D02*
X210041Y339000D01*
X208000Y340500D02*
X208541D01*
X40793Y300000D02*
X48000D01*
X39379Y301414D02*
X40793Y300000D01*
X50500Y295500D02*
Y297500D01*
X48000Y300000D02*
X50500Y297500D01*
X28500Y295500D02*
X31500D01*
X39000Y288000D01*
Y272593D02*
Y288000D01*
X25500Y295500D02*
X28500D01*
X267500Y112500D02*
X279500Y100500D01*
X234500Y141500D02*
X236750D01*
X241157Y167250D02*
X249227Y159180D01*
X263977D01*
X267500Y155657D01*
Y112500D02*
Y155657D01*
X279500Y100500D02*
X325000D01*
X197743Y121500D02*
X210000D01*
X195400Y123843D02*
X197743Y121500D01*
X174500Y140000D02*
X183500Y131000D01*
X195400Y123843D02*
Y128657D01*
X193057Y131000D02*
X195400Y128657D01*
X183500Y131000D02*
X193057D01*
X163000Y116000D02*
Y124000D01*
X174117Y135118D01*
Y139617D01*
X174500Y140000D01*
X210000Y121500D02*
X232000D01*
X73000Y136500D02*
X79000Y142500D01*
Y159500D01*
X86000Y166500D01*
X84500Y168000D02*
X86000Y166500D01*
X66040Y178040D02*
X67540D01*
X73251Y172329D01*
Y170829D02*
Y172329D01*
Y170829D02*
X76080Y168000D01*
X84500D01*
X66040Y223280D02*
X67540D01*
X103500Y234000D02*
Y245530D01*
X113616Y255646D01*
X149250Y258750D02*
X150000Y258000D01*
X149250Y258750D02*
Y269750D01*
X138000Y281000D02*
X149250Y269750D01*
X163000Y157500D02*
Y178000D01*
X160000Y154500D02*
X163000Y157500D01*
X139500Y167343D02*
X150300Y156543D01*
Y134300D02*
Y156543D01*
X174720Y219100D02*
X195580D01*
X183500Y182343D02*
Y210320D01*
X163000Y178000D02*
X167343Y182343D01*
X183500D01*
X174720Y219100D02*
X183500Y210320D01*
X172720Y219100D02*
X174720D01*
X139500Y167343D02*
Y221000D01*
X173250Y258750D02*
X174000Y258000D01*
X173250Y258750D02*
Y267250D01*
X159500Y281000D02*
X173250Y267250D01*
X221000Y200500D02*
X239459D01*
X245459Y206500D01*
X246000D01*
X241960Y211081D02*
Y231140D01*
Y211081D02*
X246000Y207041D01*
Y206500D02*
Y207041D01*
X282500Y288000D02*
X288500Y282000D01*
X230657Y288000D02*
X282500D01*
X220600Y317000D02*
X230657D01*
X218600D02*
X220600D01*
X228500Y324900D01*
X233000Y290343D02*
Y314657D01*
X218440Y316840D02*
X218600Y317000D01*
X230657D02*
X233000Y314657D01*
X196000Y288000D02*
X230657D01*
X233000Y290343D01*
X149600Y257600D02*
X150000Y258000D01*
X149600Y236620D02*
Y257600D01*
X149200Y236220D02*
X149600Y236620D01*
X231460Y231140D02*
X241960D01*
X222940Y222620D02*
X231460Y231140D01*
X222940Y221600D02*
Y222620D01*
X220440Y219100D02*
X222940Y221600D01*
X218440Y219100D02*
X220440D01*
X228500Y324900D02*
Y339000D01*
X263330Y482830D02*
Y505170D01*
X264160Y506000D01*
X254000Y495840D02*
X263330Y505170D01*
X230000Y468000D02*
X250500D01*
X227000Y471000D02*
X230000Y468000D01*
X250500D02*
X254000Y471500D01*
X247500Y447000D02*
Y453000D01*
X254000Y471500D02*
Y495840D01*
X261556Y463500D02*
X294500D01*
X252556Y454500D02*
X261556Y463500D01*
X264160Y506000D02*
Y508000D01*
X247500Y453000D02*
X249000Y454500D01*
X252556D01*
X294500Y463500D02*
X306000Y452000D01*
Y449000D02*
Y452000D01*
Y425000D02*
Y449000D01*
X262500Y482000D02*
X263330Y482830D01*
X202000Y468500D02*
X216250Y454250D01*
X199101Y459601D02*
X202414D01*
X222000Y446500D02*
X224000D01*
X186500Y447000D02*
X199101Y459601D01*
X202414D02*
X210250Y451765D01*
X216250Y452250D02*
X222000Y446500D01*
X216250Y452250D02*
Y454250D01*
X210250Y439250D02*
Y451765D01*
X190000Y468500D02*
X202000D01*
X172500Y445500D02*
X174750D01*
X189617Y460368D01*
Y468117D01*
X190000Y468500D01*
X44500Y430000D02*
X46000Y428500D01*
X82000D01*
X39500Y508000D02*
Y510000D01*
Y508000D02*
X42000Y505500D01*
X54000D01*
X54000Y505500D01*
X45000Y170000D02*
X58000D01*
X63540Y175540D01*
Y177040D01*
X64540Y178040D01*
X66040D01*
X20500Y169000D02*
X44000D01*
X45000Y170000D01*
X47250Y172250D02*
Y189000D01*
X45000Y170000D02*
X47250Y172250D01*
X45000Y234000D02*
X47500Y236500D01*
Y250500D01*
X44000Y235000D02*
X45000Y234000D01*
X20500Y235000D02*
X44000D01*
X20500Y216000D02*
Y235000D01*
Y190000D02*
Y216000D01*
Y169000D02*
Y190000D01*
X21000Y138000D02*
X71500D01*
X73000Y136500D01*
X21000Y30000D02*
Y69000D01*
X22000Y70000D01*
X72000Y20500D02*
X76900Y25400D01*
X139700D01*
X158177Y14500D02*
X202500D01*
X147277Y25400D02*
X158177Y14500D01*
X139700Y25400D02*
X147277D01*
X442850Y201930D02*
Y217930D01*
X446647Y221727D01*
X449203D01*
X454162Y226685D01*
Y249622D01*
X461620Y257080D01*
Y259080D01*
X359000Y68500D02*
X359250Y68750D01*
X376250D01*
X376500Y69000D01*
X372657Y80343D02*
X377000Y76000D01*
X383500Y69500D02*
X385500Y67500D01*
X379399Y76000D02*
X383500Y71899D01*
Y69500D02*
Y71899D01*
X377000Y76000D02*
X379399D01*
X412000Y142000D02*
X446500D01*
X463620Y148500D02*
X611000D01*
X442850Y125730D02*
Y127730D01*
Y120483D02*
Y125730D01*
Y127730D02*
X463620Y148500D01*
X395500Y96000D02*
Y110209D01*
X404050Y118759D01*
Y134050D01*
X412000Y142000D01*
X395500Y60500D02*
Y73000D01*
Y60500D02*
X401500Y54500D01*
X402000D01*
X404500Y52000D01*
Y50000D02*
Y52000D01*
X395500Y73000D02*
Y96000D01*
X454660Y78860D02*
Y96520D01*
Y78860D02*
X457860Y75660D01*
Y73660D02*
Y75660D01*
X468250Y123730D02*
Y125730D01*
X454660Y110140D02*
X468250Y123730D01*
X454660Y96520D02*
Y110140D01*
X475250Y94016D02*
Y94558D01*
X651500Y126000D02*
Y128000D01*
X609000Y75843D02*
X611343Y73500D01*
X651500Y128000D02*
X654000Y130500D01*
X611343Y73500D02*
X616000D01*
X457860Y48800D02*
X477617Y29043D01*
Y28383D02*
Y29043D01*
Y28383D02*
X478000Y28000D01*
X609000Y75843D02*
Y81500D01*
X649000Y121500D01*
X668500Y172500D02*
Y174750D01*
X670907Y177157D01*
X671157D01*
X673500Y179500D01*
Y190000D01*
X668500Y170250D02*
Y172500D01*
Y170250D02*
X674907Y163843D01*
X676657D01*
X679500Y161000D01*
Y137000D02*
Y161000D01*
X670500Y126000D02*
Y128000D01*
X679500Y137000D01*
X660400Y76200D02*
Y113900D01*
X670500Y124000D01*
Y126000D01*
X600191Y248117D02*
X600808Y247500D01*
X584383Y248117D02*
X600191D01*
X584000Y248500D02*
X584383Y248117D01*
X651500Y124000D02*
Y126000D01*
X649000Y121500D02*
X651500Y124000D01*
X639000Y121500D02*
X649000D01*
X616000Y98500D02*
X639000Y121500D01*
X591000Y257943D02*
X600808Y248135D01*
X591000Y257943D02*
Y287642D01*
X591500Y288142D01*
X607173Y240500D02*
X615000D01*
X622500Y233000D01*
X591500Y288142D02*
Y344000D01*
Y368000D01*
X600808Y246865D02*
Y247500D01*
Y246865D02*
X607173Y240500D01*
X600808Y247500D02*
Y248135D01*
X610500Y314000D02*
X675500D01*
X610500Y344000D02*
X610500Y344000D01*
Y314000D02*
Y344000D01*
Y314000D02*
X610500Y314000D01*
X628000Y363500D02*
X660000D01*
X610500Y346000D02*
X628000Y363500D01*
X610500Y344000D02*
Y346000D01*
X595000Y390500D02*
Y407000D01*
X599500Y411500D02*
X634000D01*
X595000Y407000D02*
X599500Y411500D01*
X634000Y389500D02*
Y411500D01*
Y389500D02*
X660000Y363500D01*
X293500Y382000D02*
X306000Y394500D01*
Y425000D01*
X591500Y368000D02*
Y371000D01*
X578500Y384000D02*
X591500Y371000D01*
X578500Y384000D02*
Y414000D01*
X197250Y426500D02*
X199500D01*
Y426500D01*
Y407500D02*
Y426500D01*
X198750Y427250D02*
X199500Y426500D01*
X199500Y407500D02*
X199500Y407500D01*
X34000Y419500D02*
X125157D01*
X127500Y414500D02*
Y415041D01*
X125157Y417384D02*
X127500Y415041D01*
X125157Y417384D02*
Y419500D01*
X25500Y428000D02*
X34000Y419500D01*
X188000Y417250D02*
X197250Y426500D01*
X188000Y409500D02*
Y417250D01*
X178000Y399500D02*
X188000Y409500D01*
X175000Y399500D02*
X178000D01*
X186500Y429843D02*
Y447000D01*
X189093Y427250D02*
X198750D01*
X186500Y429843D02*
X189093Y427250D01*
X222000Y427500D02*
X224000D01*
X210250Y439250D02*
X222000Y427500D01*
X230500Y430000D02*
X247500Y447000D01*
X226500Y430000D02*
X230500D01*
X224000Y427500D02*
X226500Y430000D01*
X15600Y481900D02*
X18050Y484350D01*
Y507550D01*
X20500Y510000D01*
X16700Y404500D02*
Y419200D01*
X25500Y428000D01*
Y430000D01*
X4200Y317722D02*
X10500Y311422D01*
X4200Y317722D02*
Y392000D01*
X10500Y299192D02*
Y311422D01*
X4200Y392000D02*
X16700Y404500D01*
X75907Y254500D02*
X87000D01*
X90000D01*
X67250Y274249D02*
X87000Y254500D01*
X67250Y274249D02*
Y276750D01*
X66500Y277500D02*
X67250Y276750D01*
X47093Y264500D02*
X65907D01*
X39000Y272593D02*
X47093Y264500D01*
X65907D02*
X75907Y254500D01*
X66500Y277500D02*
Y290500D01*
X69500Y293500D01*
Y295500D01*
X10500Y299192D02*
X21808D01*
X25500Y295500D01*
X196120Y181000D02*
X198120D01*
X193620Y178500D02*
X196120Y181000D01*
X193620Y176500D02*
Y178500D01*
X191883Y174763D02*
X193620Y176500D01*
X191883Y166383D02*
Y174763D01*
X191500Y166000D02*
X191883Y166383D01*
X203468Y169875D02*
X203652D01*
X208620Y174843D01*
X198500Y164907D02*
X203468Y169875D01*
X219000Y181500D02*
X221000D01*
X216500Y179000D02*
X219000Y181500D01*
X216500Y167250D02*
Y179000D01*
X209750Y160500D02*
X216500Y167250D01*
X207500Y160500D02*
X209750D01*
X221000Y181500D02*
X223000D01*
X233617Y192117D01*
X240117D01*
X240500Y192500D01*
X304800Y25400D02*
Y47300D01*
X307000Y49500D01*
X315500Y91000D02*
Y92000D01*
Y91000D02*
X321250Y85250D01*
X329000Y68500D02*
X332000D01*
X321250Y82593D02*
Y85250D01*
X327500Y70000D02*
X329000Y68500D01*
X327500Y70000D02*
Y76343D01*
X321250Y82593D02*
X327500Y76343D01*
X306500Y50000D02*
X307000Y49500D01*
X273500Y50000D02*
X306500D01*
X273000Y50500D02*
X273500Y50000D01*
X375000Y40422D02*
Y57657D01*
X332000Y68500D02*
X335000D01*
X343500Y60000D01*
X372657D01*
X375000Y57657D01*
X373843Y10000D02*
X384571D01*
X369000Y14843D02*
X373843Y10000D01*
X369000Y14843D02*
Y34422D01*
X375000Y40422D01*
X381000Y25400D02*
Y43500D01*
X385500Y48000D01*
Y50000D01*
X384571Y10000D02*
X393700Y19129D01*
X410557Y39400D02*
X417518Y46361D01*
Y49678D02*
X424380Y56540D01*
X417518Y46361D02*
Y49678D01*
X401429Y39400D02*
X410557D01*
X393700Y19129D02*
Y31670D01*
X424380Y56540D02*
X436880D01*
X393700Y31670D02*
X401429Y39400D01*
X385500Y50000D02*
Y67500D01*
X444620Y50800D02*
X457860D01*
X438880Y56540D02*
X444620Y50800D01*
X436880Y56540D02*
X438880D01*
X457860Y48800D02*
Y50800D01*
X649500Y145500D02*
Y147750D01*
X637500Y193657D02*
X639843Y196000D01*
X637500Y159749D02*
X649500Y147750D01*
X637500Y159749D02*
Y193657D01*
X645657Y196000D02*
X648000Y198343D01*
X639843Y196000D02*
X645657D01*
X648000Y198343D02*
Y207500D01*
Y226000D01*
X622500Y230000D02*
X641000D01*
X645000Y226000D01*
X648000D01*
X622500Y230000D02*
Y233000D01*
X130200Y210820D02*
Y236220D01*
X141250Y257250D02*
X142000Y258000D01*
X141250Y249270D02*
Y257250D01*
X130200Y238220D02*
X141250Y249270D01*
X130200Y236220D02*
Y238220D01*
X414500Y73000D02*
X432340D01*
X434880Y75540D01*
X436880D01*
X414500Y73000D02*
Y96000D01*
X417450Y100950D02*
Y125730D01*
X414500Y98000D02*
X417450Y100950D01*
X414500Y96000D02*
Y98000D01*
X468250Y201930D02*
Y226930D01*
X463500Y231680D02*
X468250Y226930D01*
X463500Y231680D02*
Y233680D01*
X198120Y191843D02*
Y200000D01*
Y191843D02*
X200463Y189500D01*
X206277D01*
X208620Y187157D01*
Y174843D02*
Y187157D01*
X207940Y229600D02*
X216440Y238100D01*
X207940Y214803D02*
Y229600D01*
X203737Y210600D02*
X207940Y214803D01*
X200463Y210600D02*
X203737D01*
X198120Y208257D02*
X200463Y210600D01*
X198120Y200000D02*
Y208257D01*
X195580Y238100D02*
X216440D01*
X218440D01*
X182000Y253250D02*
Y258000D01*
Y253250D02*
X191080Y244170D01*
Y240600D02*
Y244170D01*
Y240600D02*
X193580Y238100D01*
X195580D01*
X195250Y295250D02*
X196000Y296000D01*
X187343Y295250D02*
X195250D01*
X182000Y289907D02*
X187343Y295250D01*
X182000Y258000D02*
Y289907D01*
X205940Y297840D02*
X218440D01*
X204850Y296750D02*
X205940Y297840D01*
X196750Y296750D02*
X204850D01*
X196000Y296000D02*
X196750Y296750D01*
X332000Y87500D02*
X335000D01*
X342157Y80343D01*
X372657D01*
X330500Y89000D02*
X332000Y87500D01*
X330500Y89000D02*
Y95000D01*
X325000Y100500D02*
X330500Y95000D01*
X150300Y116000D02*
Y134300D01*
X174000Y239380D02*
Y258000D01*
X172720Y238100D02*
X174000Y239380D01*
X137600Y116000D02*
X150300D01*
X72000Y64000D02*
Y68500D01*
Y61500D02*
Y64000D01*
Y68500D02*
X80000Y76500D01*
X82657D01*
X110500Y104343D01*
Y110000D01*
X113000Y112500D01*
X73000Y95500D02*
X75059Y97559D01*
X22000Y70000D02*
X66000D01*
X72000Y64000D01*
X28500Y95500D02*
X73000D01*
X22000Y102000D02*
X28500Y95500D01*
X57540Y220540D02*
Y228540D01*
X47250Y215000D02*
X52000D01*
X57540Y220540D01*
X238760Y488740D02*
X243500Y484000D01*
X238760Y488740D02*
Y508000D01*
X243500Y482000D02*
Y484000D01*
X435660Y113293D02*
X442850Y120483D01*
X435660Y96520D02*
Y113293D01*
D74*
X290450Y125730D02*
D03*
X315850D02*
D03*
X341250D02*
D03*
X366650D02*
D03*
X392050D02*
D03*
X417450D02*
D03*
X442850D02*
D03*
X468250D02*
D03*
X493650D02*
D03*
X519050D02*
D03*
X544450D02*
D03*
X569850D02*
D03*
X595250D02*
D03*
X620650D02*
D03*
X290450Y201930D02*
D03*
X315850D02*
D03*
X341250D02*
D03*
X366650D02*
D03*
X392050D02*
D03*
X417450D02*
D03*
X442850D02*
D03*
X468250D02*
D03*
X493650D02*
D03*
X519050D02*
D03*
X544450D02*
D03*
X569850D02*
D03*
X595250D02*
D03*
X365760Y508000D02*
D03*
X289560D02*
D03*
X340360D02*
D03*
X314960D02*
D03*
X391160D02*
D03*
X457200D02*
D03*
X482600D02*
D03*
X508000D02*
D03*
X533400D02*
D03*
X558800D02*
D03*
X584200D02*
D03*
X609600D02*
D03*
X264160D02*
D03*
X431800Y25400D02*
D03*
X406400D02*
D03*
X187960Y508000D02*
D03*
X635000Y25400D02*
D03*
X213360Y508000D02*
D03*
X609600Y25400D02*
D03*
X584200D02*
D03*
X558800D02*
D03*
X533400D02*
D03*
X330200D02*
D03*
X238760Y508000D02*
D03*
X381000Y25400D02*
D03*
X141600Y88000D02*
D03*
X304800Y25400D02*
D03*
X167000Y88000D02*
D03*
X355600Y25400D02*
D03*
X457200D02*
D03*
D75*
X620650Y201930D02*
D03*
X416560Y508000D02*
D03*
X635000D02*
D03*
X508000Y25400D02*
D03*
X116200Y88000D02*
D03*
X279400Y25400D02*
D03*
D76*
X132000Y510500D02*
D03*
X660000Y363500D02*
D03*
X660400Y76200D02*
D03*
X139700Y25400D02*
D03*
D77*
X20500Y169000D02*
D03*
Y235000D02*
D03*
D78*
X45000Y345400D02*
D03*
X15600Y456500D02*
D03*
X16700Y379100D02*
D03*
D79*
X19600Y345400D02*
D03*
X45000Y320000D02*
D03*
X19600D02*
D03*
X41000Y456500D02*
D03*
Y481900D02*
D03*
X67500Y404500D02*
D03*
X66400Y481900D02*
D03*
Y456500D02*
D03*
X42100Y379100D02*
D03*
Y404500D02*
D03*
X67500Y379100D02*
D03*
X16700Y404500D02*
D03*
X15600Y481900D02*
D03*
D80*
X662000Y418200D02*
D03*
Y443600D02*
D03*
X146000Y369800D02*
D03*
Y420600D02*
D03*
Y395200D02*
D03*
D81*
X662000Y469000D02*
D03*
X146000Y446000D02*
D03*
D82*
X21000Y138000D02*
D03*
Y30000D02*
D03*
D83*
X191101Y96500D02*
D03*
X119500Y215000D02*
D03*
X455500Y154500D02*
D03*
X654500Y158000D02*
D03*
X172500Y197000D02*
D03*
X70500Y236500D02*
D03*
X59500D02*
D03*
X259314Y133399D02*
D03*
X187500Y146000D02*
D03*
X191293Y153044D02*
D03*
X174281Y139887D02*
D03*
X257000Y30500D02*
D03*
X88654Y99846D02*
D03*
X140000Y142000D02*
D03*
X109000Y148500D02*
D03*
X121500Y190500D02*
D03*
X115500Y255646D02*
D03*
X91500Y288000D02*
D03*
X86500Y368500D02*
D03*
X254000D02*
D03*
X275500Y366500D02*
D03*
X288700Y69700D02*
D03*
X290500Y58000D02*
D03*
X586000Y403000D02*
D03*
X483000Y329000D02*
D03*
X208000Y340500D02*
D03*
X39379Y301414D02*
D03*
X248500Y119000D02*
D03*
X138000Y281000D02*
D03*
X160000Y154500D02*
D03*
X174789Y207132D02*
D03*
X139500Y221000D02*
D03*
X159500Y281000D02*
D03*
X163000Y208500D02*
D03*
X246000Y206500D02*
D03*
X288500Y282000D02*
D03*
X316500Y279621D02*
D03*
X227000Y471000D02*
D03*
X190000Y468500D02*
D03*
X82000Y428500D02*
D03*
X54000Y505500D02*
D03*
X376500Y69000D02*
D03*
X446500Y142000D02*
D03*
X475250Y94558D02*
D03*
X616000Y73500D02*
D03*
X478000Y28000D02*
D03*
X584000Y248500D02*
D03*
X616000Y98500D02*
D03*
X293500Y382000D02*
D03*
X317000Y400000D02*
D03*
X567500Y436000D02*
D03*
X578500Y414000D02*
D03*
X199500Y407500D02*
D03*
X177500Y414500D02*
D03*
X127500Y414500D02*
D03*
X191500Y166000D02*
D03*
X240500Y192500D02*
D03*
X315500Y92000D02*
D03*
X304500Y91500D02*
D03*
X76000Y362000D02*
D03*
X257000Y195500D02*
D03*
X90500Y106000D02*
D03*
X271345Y413152D02*
D03*
X622000Y444000D02*
D03*
X588000Y438000D02*
D03*
X596846Y421654D02*
D03*
X611000Y148500D02*
D03*
X328000Y183000D02*
D03*
X303000D02*
D03*
X297500Y239500D02*
D03*
M02*
