G04*
G04 #@! TF.GenerationSoftware,Altium Limited,Altium Designer,20.1.7 (139)*
G04*
G04 Layer_Color=3150156*
%FSLAX44Y44*%
%MOMM*%
G71*
G04*
G04 #@! TF.SameCoordinates,E8198626-57D4-45C4-B418-2AD32184AFD2*
G04*
G04*
G04 #@! TF.FilePolarity,Positive*
G04*
G01*
G75*
%ADD12C,0.2540*%
%ADD84C,1.0160*%
%ADD85C,0.5000*%
%ADD86C,0.1524*%
D12*
X45000Y-297540D02*
Y333360D01*
X0Y-297540D02*
Y-7620D01*
X-25400Y-295000D02*
X0D01*
X45000D02*
X70400D01*
X-15240Y-289920D02*
X0Y-295000D01*
X-15240Y-300080D02*
X0Y-295000D01*
X45000D02*
X60240Y-300080D01*
X45000Y-295000D02*
X60240Y-289920D01*
X-176040Y345400D02*
X32960D01*
X-176040Y0D02*
X-7620D01*
X-173500Y220944D02*
Y345400D01*
Y0D02*
Y116328D01*
X-178580Y330160D02*
X-173500Y345400D01*
X-168420Y330160D01*
X-173500Y0D02*
X-168420Y15240D01*
X-178580D02*
X-173500Y0D01*
X-139040Y379100D02*
X4660D01*
X-139040Y0D02*
X-7620D01*
X-136500Y237794D02*
Y379100D01*
Y0D02*
Y133178D01*
X-141580Y363860D02*
X-136500Y379100D01*
X-131420Y363860D01*
X-136500Y0D02*
X-131420Y15240D01*
X-141580D02*
X-136500Y0D01*
X-94040Y456500D02*
X3560D01*
X-94040Y0D02*
X-7620D01*
X-91500Y276494D02*
Y456500D01*
Y0D02*
Y171878D01*
X-96580Y441260D02*
X-91500Y456500D01*
X-86420Y441260D01*
X-91500Y0D02*
X-86420Y15240D01*
X-96580D02*
X-91500Y0D01*
X0Y7620D02*
Y680540D01*
X15600Y468540D02*
Y680540D01*
Y678000D02*
X41000D01*
X-25400D02*
X0D01*
X15600D02*
X30840Y672920D01*
X15600Y678000D02*
X30840Y683080D01*
X-15240D02*
X0Y678000D01*
X-15240Y672920D02*
X0Y678000D01*
X21000Y-238040D02*
Y6460D01*
X279400Y-238040D02*
Y11860D01*
X21000Y-235500D02*
X95097D01*
X197175D02*
X279400D01*
X21000D02*
X36240Y-240580D01*
X21000Y-235500D02*
X36240Y-230420D01*
X264160D02*
X279400Y-235500D01*
X264160Y-240580D02*
X279400Y-235500D01*
X0Y-194540D02*
Y-7620D01*
X508000Y-194540D02*
Y11860D01*
X0Y-192000D02*
X196358D01*
X303514D02*
X508000D01*
X0D02*
X15240Y-197080D01*
X0Y-192000D02*
X15240Y-186920D01*
X492760D02*
X508000Y-192000D01*
X492760Y-197080D02*
X508000Y-192000D01*
X635000Y-147040D02*
Y494460D01*
X0Y-147040D02*
Y-7620D01*
X367014Y-144500D02*
X635000D01*
X0D02*
X259858D01*
X619760Y-139420D02*
X635000Y-144500D01*
X619760Y-149580D02*
X635000Y-144500D01*
X0D02*
X15240Y-149580D01*
X0Y-144500D02*
X15240Y-139420D01*
X457200Y-113540D02*
Y494460D01*
X0Y-113540D02*
Y-7620D01*
X276844Y-111000D02*
X457200D01*
X0D02*
X172228D01*
X441960Y-105920D02*
X457200Y-111000D01*
X441960Y-116080D02*
X457200Y-111000D01*
X0D02*
X15240Y-116080D01*
X0Y-111000D02*
X15240Y-105920D01*
X-87540Y25400D02*
X120160D01*
X-87540Y0D02*
X-7620D01*
X-85000Y-25400D02*
Y0D01*
Y25400D02*
Y50800D01*
X-90080Y-15240D02*
X-85000Y0D01*
X-79920Y-15240D01*
X-85000Y25400D02*
X-79920Y40640D01*
X-90080D02*
X-85000Y25400D01*
X-31040Y510500D02*
X112460D01*
X-31040Y0D02*
X-7620D01*
X-28500Y304764D02*
Y510500D01*
Y0D02*
Y197608D01*
X-33580Y495260D02*
X-28500Y510500D01*
X-23420Y495260D01*
X-28500Y0D02*
X-23420Y15240D01*
X-33580D02*
X-28500Y0D01*
X679540Y363500D02*
X784540D01*
X7620Y0D02*
X784540D01*
X782000Y227455D02*
Y363500D01*
Y0D02*
Y127917D01*
X776920Y348260D02*
X782000Y363500D01*
X787080Y348260D01*
X782000Y0D02*
X787080Y15240D01*
X776920D02*
X782000Y0D01*
X679940Y76200D02*
X724540D01*
X7620Y0D02*
X724540D01*
X722000Y-25400D02*
Y0D01*
Y76200D02*
Y101600D01*
X716920Y-15240D02*
X722000Y0D01*
X727080Y-15240D01*
X722000Y76200D02*
X727080Y91440D01*
X716920D02*
X722000Y76200D01*
X132000Y530040D02*
Y555540D01*
X2000Y541120D02*
Y555540D01*
X103818Y553000D02*
X132000D01*
X2000D02*
X22054D01*
X116760Y558080D02*
X132000Y553000D01*
X116760Y547920D02*
X132000Y553000D01*
X2000D02*
X17240Y547920D01*
X2000Y553000D02*
X17240Y558080D01*
X660000Y383040D02*
Y569040D01*
X2000Y541120D02*
Y569040D01*
X380514Y566500D02*
X660000D01*
X2000D02*
X273358D01*
X644760Y571580D02*
X660000Y566500D01*
X644760Y561420D02*
X660000Y566500D01*
X2000D02*
X17240Y561420D01*
X2000Y566500D02*
X17240Y571580D01*
X660400Y-60540D02*
Y56660D01*
X0Y-60540D02*
Y-7620D01*
X379714Y-58000D02*
X660400D01*
X0D02*
X272558D01*
X645160Y-52920D02*
X660400Y-58000D01*
X645160Y-63080D02*
X660400Y-58000D01*
X0D02*
X15240Y-63080D01*
X0Y-58000D02*
X15240Y-52920D01*
X139700Y-37040D02*
Y5860D01*
X0Y-37040D02*
Y-7620D01*
X111746Y-34500D02*
X139700D01*
X0D02*
X19826D01*
X124460Y-29420D02*
X139700Y-34500D01*
X124460Y-39580D02*
X139700Y-34500D01*
X0D02*
X15240Y-39580D01*
X0Y-34500D02*
X15240Y-29420D01*
X685000Y541120D02*
Y602040D01*
X2000Y541120D02*
Y602040D01*
X408479Y599500D02*
X685000D01*
X2000D02*
X270393D01*
X669760Y604580D02*
X685000Y599500D01*
X669760Y594420D02*
X685000Y599500D01*
X2000D02*
X17240Y594420D01*
X2000Y599500D02*
X17240Y604580D01*
X-56040Y533500D02*
X-5620D01*
X-56040Y0D02*
X-7620D01*
X-53500Y314994D02*
Y533500D01*
Y0D02*
Y210378D01*
X-58580Y518260D02*
X-53500Y533500D01*
X-48420Y518260D01*
X-53500Y0D02*
X-48420Y15240D01*
X-58580D02*
X-53500Y0D01*
D84*
X676000Y363500D02*
G03*
X676000Y363500I-16000J0D01*
G01*
X676400Y76200D02*
G03*
X676400Y76200I-16000J0D01*
G01*
X155700Y25400D02*
G03*
X155700Y25400I-16000J0D01*
G01*
X148000Y510500D02*
G03*
X148000Y510500I-16000J0D01*
G01*
X0Y0D02*
X685500D01*
Y533000D01*
X685000Y533500D02*
X685500Y533000D01*
X2000Y533500D02*
X685000D01*
X0Y531500D02*
X2000Y533500D01*
X0Y0D02*
Y531500D01*
D85*
X-239500Y-73005D02*
Y-85501D01*
X-237001Y-88000D01*
X-232002D01*
X-229503Y-85501D01*
Y-73005D01*
X-224505Y-88000D02*
Y-78003D01*
X-217007D01*
X-214508Y-80502D01*
Y-88000D01*
X-209510D02*
X-204511D01*
X-207010D01*
Y-78003D01*
X-209510D01*
X-194515Y-75504D02*
Y-78003D01*
X-197014D01*
X-192015D01*
X-194515D01*
Y-85501D01*
X-192015Y-88000D01*
X-169523Y-83002D02*
X-159526D01*
X-169523Y-78003D02*
X-159526D01*
X-139532Y-88000D02*
Y-78003D01*
X-137033D01*
X-134534Y-80502D01*
Y-88000D01*
Y-80502D01*
X-132035Y-78003D01*
X-129536Y-80502D01*
Y-88000D01*
X-124537D02*
X-119539D01*
X-122038D01*
Y-78003D01*
X-124537D01*
X-112041Y-88000D02*
X-107043D01*
X-109542D01*
Y-73005D01*
X-112041D01*
X-99545Y-88000D02*
X-92048D01*
X-89549Y-85501D01*
X-92048Y-83002D01*
X-97046D01*
X-99545Y-80502D01*
X-97046Y-78003D01*
X-89549D01*
X160500Y699998D02*
Y714994D01*
X165498Y709995D01*
X170497Y714994D01*
Y699998D01*
X182993D02*
X177994D01*
X175495Y702498D01*
Y707496D01*
X177994Y709995D01*
X182993D01*
X185492Y707496D01*
Y704997D01*
X175495D01*
X200487Y709995D02*
X192990D01*
X190490Y707496D01*
Y702498D01*
X192990Y699998D01*
X200487D01*
X205485Y714994D02*
Y699998D01*
Y707496D01*
X207985Y709995D01*
X212983D01*
X215482Y707496D01*
Y699998D01*
X222980Y709995D02*
X227978D01*
X230477Y707496D01*
Y699998D01*
X222980D01*
X220481Y702498D01*
X222980Y704997D01*
X230477D01*
X235476Y699998D02*
Y709995D01*
X242973D01*
X245473Y707496D01*
Y699998D01*
X250471D02*
X255469D01*
X252970D01*
Y709995D01*
X250471D01*
X272964D02*
X265466D01*
X262967Y707496D01*
Y702498D01*
X265466Y699998D01*
X272964D01*
X280461Y709995D02*
X285459D01*
X287959Y707496D01*
Y699998D01*
X280461D01*
X277962Y702498D01*
X280461Y704997D01*
X287959D01*
X292957Y699998D02*
X297955D01*
X295456D01*
Y714994D01*
X292957D01*
X320448D02*
Y699998D01*
X327946D01*
X330445Y702498D01*
Y712494D01*
X327946Y714994D01*
X320448D01*
X335443Y709995D02*
Y699998D01*
Y704997D01*
X337943Y707496D01*
X340442Y709995D01*
X342941D01*
X352938D02*
X357936D01*
X360435Y707496D01*
Y699998D01*
X352938D01*
X350438Y702498D01*
X352938Y704997D01*
X360435D01*
X365434Y709995D02*
Y702498D01*
X367933Y699998D01*
X370432Y702498D01*
X372931Y699998D01*
X375430Y702498D01*
Y709995D01*
X380429Y699998D02*
X385427D01*
X382928D01*
Y709995D01*
X380429D01*
X392925Y699998D02*
Y709995D01*
X400422D01*
X402921Y707496D01*
Y699998D01*
X412918Y695000D02*
X415418D01*
X417917Y697499D01*
Y709995D01*
X410419D01*
X407920Y707496D01*
Y702498D01*
X410419Y699998D01*
X417917D01*
X440409D02*
X445408D01*
X447907Y702498D01*
Y707496D01*
X445408Y709995D01*
X440409D01*
X437910Y707496D01*
Y702498D01*
X440409Y699998D01*
X455405D02*
Y712494D01*
Y707496D01*
X452905D01*
X457904D01*
X455405D01*
Y712494D01*
X457904Y714994D01*
X490393Y699998D02*
X480396D01*
X490393Y709995D01*
Y712494D01*
X487894Y714994D01*
X482896D01*
X480396Y712494D01*
X495392D02*
X497891Y714994D01*
X502889D01*
X505388Y712494D01*
Y709995D01*
X502889Y707496D01*
X505388Y704997D01*
Y702498D01*
X502889Y699998D01*
X497891D01*
X495392Y702498D01*
Y704997D01*
X497891Y707496D01*
X495392Y709995D01*
Y712494D01*
X497891Y707496D02*
X502889D01*
X525382Y699998D02*
Y714994D01*
X532879D01*
X535379Y712494D01*
Y707496D01*
X532879Y704997D01*
X525382D01*
X540377Y699998D02*
X545375D01*
X542876D01*
Y709995D01*
X540377D01*
X552873Y699998D02*
Y709995D01*
X560370D01*
X562870Y707496D01*
Y699998D01*
X567868D02*
X575366D01*
X577865Y702498D01*
X575366Y704997D01*
X570367D01*
X567868Y707496D01*
X570367Y709995D01*
X577865D01*
X597858Y714994D02*
Y704997D01*
X602857Y699998D01*
X607855Y704997D01*
Y714994D01*
X612854Y699998D02*
X617852D01*
X615353D01*
Y714994D01*
X612854Y712494D01*
X625350Y699998D02*
X630348D01*
X627849D01*
Y714994D01*
X625350D01*
X637845Y699998D02*
X642844D01*
X640345D01*
Y714994D01*
X637845Y712494D01*
D86*
X-20921Y-331566D02*
X-15843D01*
X-18382D01*
Y-316331D01*
X-20921Y-318870D01*
X-8225Y-316331D02*
X1931D01*
Y-318870D01*
X-8225Y-329027D01*
Y-331566D01*
X7010Y-316331D02*
X17166D01*
Y-318870D01*
X7010Y-329027D01*
Y-331566D01*
X22245D02*
Y-329027D01*
X24784D01*
Y-331566D01*
X22245D01*
X34941D02*
X40019D01*
X37480D01*
Y-316331D01*
X34941Y-318870D01*
X47636Y-316331D02*
X57793D01*
Y-318870D01*
X47636Y-329027D01*
Y-331566D01*
X-164359Y120392D02*
Y125470D01*
Y122931D01*
X-179594D01*
X-177054Y120392D01*
Y133088D02*
X-179594Y135627D01*
Y140705D01*
X-177054Y143244D01*
X-174515D01*
X-171976Y140705D01*
Y138166D01*
Y140705D01*
X-169437Y143244D01*
X-166898D01*
X-164359Y140705D01*
Y135627D01*
X-166898Y133088D01*
X-179594Y158479D02*
Y148323D01*
X-171976D01*
X-174515Y153401D01*
Y155940D01*
X-171976Y158479D01*
X-166898D01*
X-164359Y155940D01*
Y150862D01*
X-166898Y148323D01*
Y163558D02*
X-164359Y166097D01*
Y171175D01*
X-166898Y173714D01*
X-177054D01*
X-179594Y171175D01*
Y166097D01*
X-177054Y163558D01*
X-174515D01*
X-171976Y166097D01*
Y173714D01*
X-164359Y178793D02*
X-166898D01*
Y181332D01*
X-164359D01*
Y178793D01*
X-177054Y191489D02*
X-179594Y194028D01*
Y199106D01*
X-177054Y201645D01*
X-174515D01*
X-171976Y199106D01*
X-169437Y201645D01*
X-166898D01*
X-164359Y199106D01*
Y194028D01*
X-166898Y191489D01*
X-169437D01*
X-171976Y194028D01*
X-174515Y191489D01*
X-177054D01*
X-171976Y194028D02*
Y199106D01*
X-164359Y214341D02*
X-179594D01*
X-171976Y206724D01*
Y216880D01*
X-127359Y137242D02*
Y142320D01*
Y139781D01*
X-142593D01*
X-140054Y137242D01*
X-127359Y157555D02*
X-142593D01*
X-134976Y149937D01*
Y160094D01*
X-129898Y165173D02*
X-127359Y167712D01*
Y172790D01*
X-129898Y175329D01*
X-140054D01*
X-142593Y172790D01*
Y167712D01*
X-140054Y165173D01*
X-137515D01*
X-134976Y167712D01*
Y175329D01*
X-127359Y190564D02*
Y180408D01*
X-137515Y190564D01*
X-140054D01*
X-142593Y188025D01*
Y182947D01*
X-140054Y180408D01*
X-127359Y195643D02*
X-129898D01*
Y198182D01*
X-127359D01*
Y195643D01*
X-142593Y218495D02*
Y208339D01*
X-134976D01*
X-137515Y213417D01*
Y215956D01*
X-134976Y218495D01*
X-129898D01*
X-127359Y215956D01*
Y210878D01*
X-129898Y208339D01*
X-127359Y233730D02*
Y223574D01*
X-137515Y233730D01*
X-140054D01*
X-142593Y231191D01*
Y226113D01*
X-140054Y223574D01*
X-82359Y175942D02*
Y181020D01*
Y178481D01*
X-97593D01*
X-95054Y175942D01*
X-97593Y188638D02*
Y198794D01*
X-95054D01*
X-84898Y188638D01*
X-82359D01*
X-84898Y203873D02*
X-82359Y206412D01*
Y211490D01*
X-84898Y214029D01*
X-95054D01*
X-97593Y211490D01*
Y206412D01*
X-95054Y203873D01*
X-92515D01*
X-89976Y206412D01*
Y214029D01*
X-97593Y219108D02*
Y229264D01*
X-95054D01*
X-84898Y219108D01*
X-82359D01*
Y234343D02*
X-84898D01*
Y236882D01*
X-82359D01*
Y234343D01*
Y257195D02*
Y247039D01*
X-92515Y257195D01*
X-95054D01*
X-97593Y254656D01*
Y249578D01*
X-95054Y247039D01*
X-82359Y269891D02*
X-97593D01*
X-89976Y262274D01*
Y272430D01*
X-19117Y711518D02*
X-24195Y708979D01*
X-29273Y703901D01*
Y698822D01*
X-26734Y696283D01*
X-21656D01*
X-19117Y698822D01*
Y701361D01*
X-21656Y703901D01*
X-29273D01*
X-14038Y696283D02*
X-8960D01*
X-11499D01*
Y711518D01*
X-14038Y708979D01*
X-1342Y696283D02*
Y698822D01*
X1197D01*
Y696283D01*
X-1342D01*
X18971D02*
Y711518D01*
X11353Y703901D01*
X21510D01*
X36745Y696283D02*
X26589D01*
X36745Y706440D01*
Y708979D01*
X34206Y711518D01*
X29128D01*
X26589Y708979D01*
X99161Y-244641D02*
X104240D01*
X101700D01*
Y-229407D01*
X99161Y-231946D01*
X111857D02*
X114396Y-229407D01*
X119475D01*
X122014Y-231946D01*
Y-242102D01*
X119475Y-244641D01*
X114396D01*
X111857Y-242102D01*
Y-231946D01*
X127092Y-244641D02*
X132171D01*
X129631D01*
Y-229407D01*
X127092Y-231946D01*
X139788Y-229407D02*
X149945D01*
Y-231946D01*
X139788Y-242102D01*
Y-244641D01*
X155023D02*
Y-242102D01*
X157562D01*
Y-244641D01*
X155023D01*
X167719Y-231946D02*
X170258Y-229407D01*
X175337D01*
X177876Y-231946D01*
Y-234485D01*
X175337Y-237024D01*
X172797D01*
X175337D01*
X177876Y-239563D01*
Y-242102D01*
X175337Y-244641D01*
X170258D01*
X167719Y-242102D01*
X193111Y-244641D02*
X182954D01*
X193111Y-234485D01*
Y-231946D01*
X190572Y-229407D01*
X185493D01*
X182954Y-231946D01*
X210579Y-201141D02*
X200422D01*
X210579Y-190985D01*
Y-188446D01*
X208039Y-185907D01*
X202961D01*
X200422Y-188446D01*
X215657D02*
X218196Y-185907D01*
X223275D01*
X225814Y-188446D01*
Y-198602D01*
X223275Y-201141D01*
X218196D01*
X215657Y-198602D01*
Y-188446D01*
X230892D02*
X233431Y-185907D01*
X238510D01*
X241049Y-188446D01*
Y-198602D01*
X238510Y-201141D01*
X233431D01*
X230892Y-198602D01*
Y-188446D01*
X246127D02*
X248666Y-185907D01*
X253745D01*
X256284Y-188446D01*
Y-198602D01*
X253745Y-201141D01*
X248666D01*
X246127Y-198602D01*
Y-188446D01*
X261362Y-201141D02*
Y-198602D01*
X263902D01*
Y-201141D01*
X261362D01*
X274058Y-188446D02*
X276597Y-185907D01*
X281676D01*
X284215Y-188446D01*
Y-198602D01*
X281676Y-201141D01*
X276597D01*
X274058Y-198602D01*
Y-188446D01*
X289293D02*
X291832Y-185907D01*
X296911D01*
X299450Y-188446D01*
Y-198602D01*
X296911Y-201141D01*
X291832D01*
X289293Y-198602D01*
Y-188446D01*
X274079Y-153642D02*
X263922D01*
X274079Y-143485D01*
Y-140946D01*
X271539Y-138406D01*
X266461D01*
X263922Y-140946D01*
X289314Y-138406D02*
X279157D01*
Y-146024D01*
X284235Y-143485D01*
X286775D01*
X289314Y-146024D01*
Y-151102D01*
X286775Y-153642D01*
X281696D01*
X279157Y-151102D01*
X294392Y-140946D02*
X296931Y-138406D01*
X302010D01*
X304549Y-140946D01*
Y-151102D01*
X302010Y-153642D01*
X296931D01*
X294392Y-151102D01*
Y-140946D01*
X309627D02*
X312166Y-138406D01*
X317245D01*
X319784Y-140946D01*
Y-151102D01*
X317245Y-153642D01*
X312166D01*
X309627Y-151102D01*
Y-140946D01*
X324862Y-153642D02*
Y-151102D01*
X327402D01*
Y-153642D01*
X324862D01*
X337558Y-140946D02*
X340097Y-138406D01*
X345176D01*
X347715Y-140946D01*
Y-151102D01*
X345176Y-153642D01*
X340097D01*
X337558Y-151102D01*
Y-140946D01*
X352793D02*
X355332Y-138406D01*
X360411D01*
X362950Y-140946D01*
Y-151102D01*
X360411Y-153642D01*
X355332D01*
X352793Y-151102D01*
Y-140946D01*
X176292Y-120141D02*
X181370D01*
X178831D01*
Y-104907D01*
X176292Y-107446D01*
X188988D02*
X191527Y-104907D01*
X196605D01*
X199144Y-107446D01*
Y-109985D01*
X196605Y-112524D01*
X199144Y-115063D01*
Y-117602D01*
X196605Y-120141D01*
X191527D01*
X188988Y-117602D01*
Y-115063D01*
X191527Y-112524D01*
X188988Y-109985D01*
Y-107446D01*
X191527Y-112524D02*
X196605D01*
X204223Y-107446D02*
X206762Y-104907D01*
X211840D01*
X214379Y-107446D01*
Y-117602D01*
X211840Y-120141D01*
X206762D01*
X204223Y-117602D01*
Y-107446D01*
X219458D02*
X221997Y-104907D01*
X227075D01*
X229614Y-107446D01*
Y-117602D01*
X227075Y-120141D01*
X221997D01*
X219458Y-117602D01*
Y-107446D01*
X234693Y-120141D02*
Y-117602D01*
X237232D01*
Y-120141D01*
X234693D01*
X247389Y-107446D02*
X249928Y-104907D01*
X255006D01*
X257545Y-107446D01*
Y-117602D01*
X255006Y-120141D01*
X249928D01*
X247389Y-117602D01*
Y-107446D01*
X262624D02*
X265163Y-104907D01*
X270241D01*
X272780Y-107446D01*
Y-117602D01*
X270241Y-120141D01*
X265163D01*
X262624Y-117602D01*
Y-107446D01*
X-103283Y-31991D02*
Y-26913D01*
Y-29452D01*
X-118518D01*
X-115979Y-31991D01*
Y-19295D02*
X-118518Y-16756D01*
Y-11677D01*
X-115979Y-9138D01*
X-105822D01*
X-103283Y-11677D01*
Y-16756D01*
X-105822Y-19295D01*
X-115979D01*
Y-4060D02*
X-118518Y-1521D01*
Y3558D01*
X-115979Y6097D01*
X-105822D01*
X-103283Y3558D01*
Y-1521D01*
X-105822Y-4060D01*
X-115979D01*
X-103283Y11175D02*
X-105822D01*
Y13714D01*
X-103283D01*
Y11175D01*
X-115979Y23871D02*
X-118518Y26410D01*
Y31489D01*
X-115979Y34028D01*
X-105822D01*
X-103283Y31489D01*
Y26410D01*
X-105822Y23871D01*
X-115979D01*
Y39106D02*
X-118518Y41645D01*
Y46724D01*
X-115979Y49263D01*
X-105822D01*
X-103283Y46724D01*
Y41645D01*
X-105822Y39106D01*
X-115979D01*
X-19359Y211829D02*
Y201672D01*
X-29515Y211829D01*
X-32054D01*
X-34594Y209289D01*
Y204211D01*
X-32054Y201672D01*
Y216907D02*
X-34594Y219446D01*
Y224525D01*
X-32054Y227064D01*
X-21898D01*
X-19359Y224525D01*
Y219446D01*
X-21898Y216907D01*
X-32054D01*
Y232142D02*
X-34594Y234681D01*
Y239760D01*
X-32054Y242299D01*
X-21898D01*
X-19359Y239760D01*
Y234681D01*
X-21898Y232142D01*
X-32054D01*
X-21898Y247377D02*
X-19359Y249916D01*
Y254995D01*
X-21898Y257534D01*
X-32054D01*
X-34594Y254995D01*
Y249916D01*
X-32054Y247377D01*
X-29515D01*
X-26976Y249916D01*
Y257534D01*
X-19359Y262612D02*
X-21898D01*
Y265152D01*
X-19359D01*
Y262612D01*
X-32054Y275308D02*
X-34594Y277847D01*
Y282926D01*
X-32054Y285465D01*
X-29515D01*
X-26976Y282926D01*
X-24437Y285465D01*
X-21898D01*
X-19359Y282926D01*
Y277847D01*
X-21898Y275308D01*
X-24437D01*
X-26976Y277847D01*
X-29515Y275308D01*
X-32054D01*
X-26976Y277847D02*
Y282926D01*
X-19359Y298161D02*
X-34594D01*
X-26976Y290543D01*
Y300700D01*
X791142Y131981D02*
Y137059D01*
Y134520D01*
X775907D01*
X778446Y131981D01*
X791142Y152294D02*
X775907D01*
X783524Y144677D01*
Y154833D01*
X778446Y159912D02*
X775907Y162451D01*
Y167529D01*
X778446Y170068D01*
X780985D01*
X783524Y167529D01*
Y164990D01*
Y167529D01*
X786063Y170068D01*
X788602D01*
X791142Y167529D01*
Y162451D01*
X788602Y159912D01*
X791142Y175147D02*
Y180225D01*
Y177686D01*
X775907D01*
X778446Y175147D01*
X791142Y187843D02*
X788602D01*
Y190382D01*
X791142D01*
Y187843D01*
Y200539D02*
Y205617D01*
Y203078D01*
X775907D01*
X778446Y200539D01*
Y213235D02*
X775907Y215774D01*
Y220852D01*
X778446Y223391D01*
X788602D01*
X791142Y220852D01*
Y215774D01*
X788602Y213235D01*
X778446D01*
X745870Y-7861D02*
X743331Y-5321D01*
Y-243D01*
X745870Y2296D01*
X748409D01*
X750949Y-243D01*
Y-2782D01*
Y-243D01*
X753488Y2296D01*
X756027D01*
X758566Y-243D01*
Y-5321D01*
X756027Y-7861D01*
X745870Y7375D02*
X743331Y9914D01*
Y14992D01*
X745870Y17531D01*
X756027D01*
X758566Y14992D01*
Y9914D01*
X756027Y7375D01*
X745870D01*
Y22610D02*
X743331Y25149D01*
Y30227D01*
X745870Y32766D01*
X756027D01*
X758566Y30227D01*
Y25149D01*
X756027Y22610D01*
X745870D01*
X758566Y37845D02*
X756027D01*
Y40384D01*
X758566D01*
Y37845D01*
X745870Y50541D02*
X743331Y53080D01*
Y58158D01*
X745870Y60697D01*
X756027D01*
X758566Y58158D01*
Y53080D01*
X756027Y50541D01*
X745870D01*
Y65776D02*
X743331Y68315D01*
Y73393D01*
X745870Y75932D01*
X756027D01*
X758566Y73393D01*
Y68315D01*
X756027Y65776D01*
X745870D01*
X36275Y559094D02*
X26118D01*
Y551476D01*
X31196Y554015D01*
X33735D01*
X36275Y551476D01*
Y546398D01*
X33735Y543858D01*
X28657D01*
X26118Y546398D01*
X41353Y543858D02*
X46431D01*
X43892D01*
Y559094D01*
X41353Y556554D01*
X54049Y543858D02*
X59127D01*
X56588D01*
Y559094D01*
X54049Y556554D01*
X66745Y543858D02*
Y546398D01*
X69284D01*
Y543858D01*
X66745D01*
X79441Y556554D02*
X81980Y559094D01*
X87058D01*
X89597Y556554D01*
Y554015D01*
X87058Y551476D01*
X89597Y548937D01*
Y546398D01*
X87058Y543858D01*
X81980D01*
X79441Y546398D01*
Y548937D01*
X81980Y551476D01*
X79441Y554015D01*
Y556554D01*
X81980Y551476D02*
X87058D01*
X94676Y543858D02*
X99754D01*
X97215D01*
Y559094D01*
X94676Y556554D01*
X287579Y557359D02*
X277422D01*
X287579Y567515D01*
Y570054D01*
X285040Y572593D01*
X279961D01*
X277422Y570054D01*
X302814Y572593D02*
X292657D01*
Y564976D01*
X297735Y567515D01*
X300275D01*
X302814Y564976D01*
Y559898D01*
X300275Y557359D01*
X295196D01*
X292657Y559898D01*
X307892D02*
X310431Y557359D01*
X315510D01*
X318049Y559898D01*
Y570054D01*
X315510Y572593D01*
X310431D01*
X307892Y570054D01*
Y567515D01*
X310431Y564976D01*
X318049D01*
X323127Y570054D02*
X325666Y572593D01*
X330745D01*
X333284Y570054D01*
Y559898D01*
X330745Y557359D01*
X325666D01*
X323127Y559898D01*
Y570054D01*
X338362Y557359D02*
Y559898D01*
X340901D01*
Y557359D01*
X338362D01*
X361215Y572593D02*
X351058D01*
Y564976D01*
X356137Y567515D01*
X358676D01*
X361215Y564976D01*
Y559898D01*
X358676Y557359D01*
X353597D01*
X351058Y559898D01*
X376450Y572593D02*
X366293D01*
Y564976D01*
X371372Y567515D01*
X373911D01*
X376450Y564976D01*
Y559898D01*
X373911Y557359D01*
X368832D01*
X366293Y559898D01*
X286779Y-67141D02*
X276622D01*
X286779Y-56985D01*
Y-54446D01*
X284240Y-51906D01*
X279161D01*
X276622Y-54446D01*
X302014Y-51906D02*
X296935Y-54446D01*
X291857Y-59524D01*
Y-64602D01*
X294396Y-67141D01*
X299475D01*
X302014Y-64602D01*
Y-62063D01*
X299475Y-59524D01*
X291857D01*
X307092Y-54446D02*
X309631Y-51906D01*
X314710D01*
X317249Y-54446D01*
Y-64602D01*
X314710Y-67141D01*
X309631D01*
X307092Y-64602D01*
Y-54446D01*
X322327D02*
X324866Y-51906D01*
X329945D01*
X332484Y-54446D01*
Y-64602D01*
X329945Y-67141D01*
X324866D01*
X322327Y-64602D01*
Y-54446D01*
X337562Y-67141D02*
Y-64602D01*
X340102D01*
Y-67141D01*
X337562D01*
X350258Y-54446D02*
X352797Y-51906D01*
X357876D01*
X360415Y-54446D01*
Y-64602D01*
X357876Y-67141D01*
X352797D01*
X350258Y-64602D01*
Y-54446D01*
X365493D02*
X368032Y-51906D01*
X373111D01*
X375650Y-54446D01*
Y-64602D01*
X373111Y-67141D01*
X368032D01*
X365493Y-64602D01*
Y-54446D01*
X34046Y-28407D02*
X23890D01*
Y-36024D01*
X28968Y-33485D01*
X31507D01*
X34046Y-36024D01*
Y-41102D01*
X31507Y-43642D01*
X26429D01*
X23890Y-41102D01*
X49281Y-28407D02*
X39125D01*
Y-36024D01*
X44203Y-33485D01*
X46742D01*
X49281Y-36024D01*
Y-41102D01*
X46742Y-43642D01*
X41664D01*
X39125Y-41102D01*
X54360Y-30946D02*
X56899Y-28407D01*
X61977D01*
X64516Y-30946D01*
Y-41102D01*
X61977Y-43642D01*
X56899D01*
X54360Y-41102D01*
Y-30946D01*
X69595Y-43642D02*
Y-41102D01*
X72134D01*
Y-43642D01*
X69595D01*
X82291Y-30946D02*
X84830Y-28407D01*
X89908D01*
X92447Y-30946D01*
Y-41102D01*
X89908Y-43642D01*
X84830D01*
X82291Y-41102D01*
Y-30946D01*
X97526D02*
X100065Y-28407D01*
X105143D01*
X107682Y-30946D01*
Y-41102D01*
X105143Y-43642D01*
X100065D01*
X97526Y-41102D01*
Y-30946D01*
X287786Y587979D02*
X274457D01*
X287786Y601308D01*
Y604641D01*
X284454Y607973D01*
X277789D01*
X274457Y604641D01*
X307780Y607973D02*
X301115Y604641D01*
X294450Y597976D01*
Y591311D01*
X297783Y587979D01*
X304447D01*
X307780Y591311D01*
Y594644D01*
X304447Y597976D01*
X294450D01*
X314444Y604641D02*
X317776Y607973D01*
X324441D01*
X327773Y604641D01*
Y601308D01*
X324441Y597976D01*
X327773Y594644D01*
Y591311D01*
X324441Y587979D01*
X317776D01*
X314444Y591311D01*
Y594644D01*
X317776Y597976D01*
X314444Y601308D01*
Y604641D01*
X317776Y597976D02*
X324441D01*
X334438Y604641D02*
X337770Y607973D01*
X344434D01*
X347767Y604641D01*
Y601308D01*
X344434Y597976D01*
X347767Y594644D01*
Y591311D01*
X344434Y587979D01*
X337770D01*
X334438Y591311D01*
Y594644D01*
X337770Y597976D01*
X334438Y601308D01*
Y604641D01*
X337770Y597976D02*
X344434D01*
X354431Y587979D02*
Y591311D01*
X357763D01*
Y587979D01*
X354431D01*
X371092Y591311D02*
X374425Y587979D01*
X381089D01*
X384422Y591311D01*
Y604641D01*
X381089Y607973D01*
X374425D01*
X371092Y604641D01*
Y601308D01*
X374425Y597976D01*
X384422D01*
X391086Y604641D02*
X394418Y607973D01*
X401083D01*
X404415Y604641D01*
Y601308D01*
X401083Y597976D01*
X404415Y594644D01*
Y591311D01*
X401083Y587979D01*
X394418D01*
X391086Y591311D01*
Y594644D01*
X394418Y597976D01*
X391086Y601308D01*
Y604641D01*
X394418Y597976D02*
X401083D01*
X-44359Y224598D02*
Y214442D01*
X-54515Y224598D01*
X-57054D01*
X-59594Y222059D01*
Y216981D01*
X-57054Y214442D01*
X-44359Y229677D02*
Y234755D01*
Y232216D01*
X-59594D01*
X-57054Y229677D01*
Y242373D02*
X-59594Y244912D01*
Y249990D01*
X-57054Y252529D01*
X-46898D01*
X-44359Y249990D01*
Y244912D01*
X-46898Y242373D01*
X-57054D01*
Y257608D02*
X-59594Y260147D01*
Y265225D01*
X-57054Y267764D01*
X-46898D01*
X-44359Y265225D01*
Y260147D01*
X-46898Y257608D01*
X-57054D01*
X-44359Y272843D02*
X-46898D01*
Y275382D01*
X-44359D01*
Y272843D01*
X-57054Y285539D02*
X-59594Y288078D01*
Y293156D01*
X-57054Y295695D01*
X-54515D01*
X-51976Y293156D01*
Y290617D01*
Y293156D01*
X-49437Y295695D01*
X-46898D01*
X-44359Y293156D01*
Y288078D01*
X-46898Y285539D01*
Y300774D02*
X-44359Y303313D01*
Y308391D01*
X-46898Y310930D01*
X-57054D01*
X-59594Y308391D01*
Y303313D01*
X-57054Y300774D01*
X-54515D01*
X-51976Y303313D01*
Y310930D01*
M02*
