G04*
G04 #@! TF.GenerationSoftware,Altium Limited,Altium Designer,20.1.7 (139)*
G04*
G04 Layer_Physical_Order=2*
G04 Layer_Color=16711680*
%FSLAX44Y44*%
%MOMM*%
G71*
G04*
G04 #@! TF.SameCoordinates,E8198626-57D4-45C4-B418-2AD32184AFD2*
G04*
G04*
G04 #@! TF.FilePolarity,Positive*
G04*
G01*
G75*
%ADD18R,1.9000X1.9000*%
%ADD65R,1.9000X1.9000*%
%ADD66C,1.9000*%
%ADD72C,0.3000*%
%ADD73C,0.4000*%
%ADD74O,1.6000X2.0000*%
%ADD75R,1.6000X2.0000*%
%ADD76C,3.2000*%
G04:AMPARAMS|DCode=77|XSize=2mm|YSize=1.2mm|CornerRadius=0.36mm|HoleSize=0mm|Usage=FLASHONLY|Rotation=0.000|XOffset=0mm|YOffset=0mm|HoleType=Round|Shape=RoundedRectangle|*
%AMROUNDEDRECTD77*
21,1,2.0000,0.4800,0,0,0.0*
21,1,1.2800,1.2000,0,0,0.0*
1,1,0.7200,0.6400,-0.2400*
1,1,0.7200,-0.6400,-0.2400*
1,1,0.7200,-0.6400,0.2400*
1,1,0.7200,0.6400,0.2400*
%
%ADD77ROUNDEDRECTD77*%
%ADD78R,1.7000X1.7000*%
%ADD79C,1.7000*%
%ADD80O,2.0000X1.6000*%
%ADD81R,2.0000X1.6000*%
%ADD82C,4.0000*%
%ADD83C,0.6000*%
G36*
X180000Y98732D02*
Y77500D01*
X180282D01*
X180333Y77247D01*
X181217Y75924D01*
X194024Y63116D01*
X194024Y63116D01*
X195347Y62232D01*
X196497Y62003D01*
X197500Y61000D01*
X269000D01*
Y57000D01*
X287427Y38573D01*
X286941Y37400D01*
X276600D01*
X269500Y44500D01*
X204384D01*
X176942Y71942D01*
X176280Y72384D01*
X175500Y72539D01*
X174961D01*
X174500Y73000D01*
X158000D01*
X157500Y75500D01*
Y101500D01*
X177232D01*
X180000Y98732D01*
D02*
G37*
G36*
X129000Y72500D02*
X131000Y70500D01*
X175500D01*
X205500Y40500D01*
X270500D01*
Y37400D01*
X269400D01*
Y13400D01*
X270500D01*
Y9000D01*
X274000Y12500D01*
X369000D01*
Y36793D01*
X369500Y37000D01*
X393500D01*
Y2659D01*
X392327Y2173D01*
X391500Y3000D01*
X253106D01*
X252854Y4270D01*
X253300Y4455D01*
X255702Y6298D01*
X257545Y8700D01*
X258704Y11498D01*
X259099Y14500D01*
X258704Y17502D01*
X257545Y20300D01*
X255702Y22702D01*
X253300Y24545D01*
X250502Y25704D01*
X250723Y26931D01*
X253371D01*
X253395Y26895D01*
X255049Y25790D01*
X257000Y25402D01*
X258951Y25790D01*
X260605Y26895D01*
X261710Y28549D01*
X262098Y30500D01*
X261710Y32451D01*
X260605Y34105D01*
X258951Y35210D01*
X257000Y35598D01*
X255049Y35210D01*
X253395Y34105D01*
X253371Y34069D01*
X188200D01*
X174845Y47423D01*
X173687Y48197D01*
X172322Y48469D01*
X115578D01*
X96569Y67478D01*
Y86500D01*
X103000D01*
Y99953D01*
X104547Y101500D01*
X129000D01*
Y72500D01*
D02*
G37*
G36*
X365500Y15000D02*
X365309Y14539D01*
X341000D01*
Y34500D01*
X345000Y38500D01*
X365500D01*
Y15000D01*
D02*
G37*
G36*
X39422Y43000D02*
X39422Y43000D01*
X39732Y41439D01*
X40616Y40116D01*
X48116Y32616D01*
X48116Y32616D01*
X49439Y31732D01*
X51000Y31422D01*
X100811D01*
X109716Y22516D01*
X111039Y21632D01*
X112600Y21322D01*
X112600Y21322D01*
X122127D01*
X122990Y18478D01*
X124661Y15351D01*
X126910Y12610D01*
X129651Y10361D01*
X132778Y8690D01*
X136171Y7660D01*
X139700Y7313D01*
X143229Y7660D01*
X146622Y8690D01*
X149749Y10361D01*
X152490Y12610D01*
X154739Y15351D01*
X156410Y18478D01*
X157439Y21871D01*
X157787Y25400D01*
X157439Y28929D01*
X156410Y32322D01*
X154739Y35449D01*
X152490Y38189D01*
X150209Y40061D01*
X150663Y41331D01*
X170844D01*
X184198Y27977D01*
X185356Y27203D01*
X186722Y26931D01*
X199277D01*
X199498Y25704D01*
X196700Y24545D01*
X194298Y22702D01*
X192455Y20300D01*
X191296Y17502D01*
X190901Y14500D01*
X191296Y11498D01*
X192455Y8700D01*
X194298Y6298D01*
X196700Y4455D01*
X197146Y4270D01*
X196894Y3000D01*
X3707D01*
X3500Y3500D01*
Y70500D01*
X39422D01*
Y43000D01*
D02*
G37*
D18*
X247500Y79500D02*
D03*
D65*
X675500Y269000D02*
D03*
D66*
Y314000D02*
D03*
X610500D02*
D03*
Y269000D02*
D03*
X247500Y14500D02*
D03*
X202500D02*
D03*
Y79500D02*
D03*
D72*
X107000Y409000D02*
X144000Y446000D01*
X107000Y209822D02*
Y409000D01*
X109000Y148500D02*
Y207822D01*
X107000Y209822D02*
X109000Y207822D01*
X119500Y215000D02*
X122074Y212426D01*
X654500Y158000D02*
Y317902D01*
X624500Y347902D02*
X654500Y317902D01*
X259000Y133085D02*
X259314Y133399D01*
X259000Y133000D02*
Y133085D01*
X200500Y133000D02*
X259000D01*
X187500Y146000D02*
X200500Y133000D01*
X93000Y66000D02*
X114100Y44900D01*
X172322D01*
X186722Y30500D01*
X257000D01*
X93000Y66000D02*
Y95000D01*
X140000Y142000D01*
X121500Y190500D02*
X154192D01*
X122074Y209425D02*
Y212426D01*
Y209425D02*
X123000Y208500D01*
X144000Y446000D02*
X146000D01*
X123000Y208500D02*
X163000D01*
X86500Y293000D02*
X91500Y288000D01*
X86500Y293000D02*
Y368500D01*
X256000Y366500D02*
X275500D01*
X254000Y368500D02*
X256000Y366500D01*
X288500Y69900D02*
Y75500D01*
Y69900D02*
X288700Y69700D01*
X154192Y190500D02*
X171192Y207500D01*
X174420D01*
X174789Y207132D01*
X315500Y278621D02*
X316500Y279621D01*
X315500Y277810D02*
Y278621D01*
X312500Y274810D02*
X315500Y277810D01*
X312500Y243000D02*
Y274810D01*
X595250Y125730D02*
X607393D01*
X609150Y127487D02*
Y132493D01*
X616657Y140000D01*
X607393Y125730D02*
X609150Y127487D01*
X616657Y140000D02*
X633243D01*
X326500Y409500D02*
Y458000D01*
X336000Y407500D02*
Y454500D01*
X318000Y389500D02*
X336000Y407500D01*
X317000Y400000D02*
X326500Y409500D01*
X318500Y415257D02*
Y462500D01*
X294527Y413500D02*
X316743D01*
X231000Y389500D02*
X318000D01*
X316743Y413500D02*
X318500Y415257D01*
X560500Y428500D02*
X562500Y426500D01*
X567500Y436000D02*
Y459314D01*
X560500Y428500D02*
Y459243D01*
X562500Y426500D02*
X591308D01*
X560814Y466000D02*
X567500Y459314D01*
X200278Y414500D02*
X200778Y414000D01*
X206000Y408778D02*
X214778Y400000D01*
X202192Y414000D02*
X206000Y410192D01*
Y408778D02*
Y410192D01*
X200778Y414000D02*
X202192D01*
X214778Y400000D02*
X220500D01*
X177500Y414500D02*
X200278D01*
X220500Y400000D02*
X231000Y389500D01*
X288500Y75500D02*
X304500Y91500D01*
X336000Y454500D02*
X342500Y461000D01*
X326500Y458000D02*
X334500Y466000D01*
X595000Y423500D02*
X596846Y421654D01*
Y421654D02*
Y421654D01*
X594308Y423500D02*
X595000D01*
X591308Y426500D02*
X594308Y423500D01*
X45000Y345400D02*
X61600Y362000D01*
X76000D01*
X263430Y201930D02*
X290450D01*
X257000Y195500D02*
X263430Y201930D01*
X272693Y414500D02*
X293527D01*
X271345Y413152D02*
X272693Y414500D01*
X293527D02*
X294527Y413500D01*
X318500Y462500D02*
X327000Y471000D01*
X589243D01*
X187960Y506000D02*
X196799Y497161D01*
X187960Y506000D02*
Y508000D01*
X199284Y497161D02*
X201860Y499737D01*
X196799Y497161D02*
X199284D01*
X201860Y499737D02*
Y514763D01*
X558743Y461000D02*
X560500Y459243D01*
X589243Y471000D02*
X591000Y469243D01*
Y456156D02*
Y469243D01*
X334500Y466000D02*
X560814D01*
X342500Y461000D02*
X558743D01*
X603571Y489000D02*
X610500Y482071D01*
X271964Y490757D02*
X273722Y489000D01*
X603571D01*
X271964Y490757D02*
Y497541D01*
X610500Y431929D02*
X614500Y427929D01*
X605142Y494500D02*
X615500Y484142D01*
X610500Y431929D02*
Y482071D01*
X615500Y435818D02*
X619500Y431818D01*
X615500Y435818D02*
Y484142D01*
X621426Y443426D02*
X622000Y444000D01*
X621426Y438815D02*
Y443426D01*
X588000Y438000D02*
Y453156D01*
X591000Y456156D01*
X620500Y437889D02*
X621426Y438815D01*
X620500Y437889D02*
X624500Y433889D01*
X619500Y342000D02*
Y431818D01*
X614500Y336870D02*
Y427929D01*
Y336870D02*
X638150Y313220D01*
X289323Y526500D02*
X301060Y514763D01*
Y503637D02*
X310197Y494500D01*
X619500Y342000D02*
X643500Y318000D01*
X310197Y494500D02*
X605142D01*
X301060Y503637D02*
Y514763D01*
X624500Y347902D02*
Y433889D01*
X223123Y526500D02*
X289323D01*
X271964Y497541D02*
X275660Y501237D01*
X236845Y485000D02*
X238603Y486757D01*
X275660Y501237D02*
Y514763D01*
X227260Y501237D02*
Y514763D01*
X233997Y521500D02*
X268923D01*
X234360Y485000D02*
X236845D01*
X218123Y521500D02*
X223123Y526500D01*
X227260Y501237D02*
X238603Y489894D01*
X268923Y521500D02*
X275660Y514763D01*
X227260D02*
X233997Y521500D01*
X238603Y486757D02*
Y489894D01*
X213360Y506000D02*
X234360Y485000D01*
X643500Y136500D02*
Y318000D01*
X638150Y144907D02*
Y313220D01*
X633243Y140000D02*
X638150Y144907D01*
X213360Y506000D02*
Y508000D01*
X208597Y521500D02*
X218123D01*
X201860Y514763D02*
X208597Y521500D01*
X632730Y125730D02*
X643500Y136500D01*
X620650Y125730D02*
X632730D01*
X312500Y243000D02*
X328000Y227500D01*
Y183000D02*
Y227500D01*
X297500Y238688D02*
X303000Y233188D01*
Y183000D02*
Y233188D01*
X297500Y238688D02*
Y239500D01*
D73*
X164407Y120093D02*
X184100Y100400D01*
X141600Y88000D02*
X142199Y88599D01*
Y101199D02*
X161093Y120093D01*
X142199Y88599D02*
Y101199D01*
X161093Y120093D02*
X164407D01*
X191101Y97424D02*
Y123399D01*
X190177Y96500D02*
X191101Y97424D01*
X190177Y96500D02*
X226000D01*
X174500Y140000D02*
X191101Y123399D01*
X184100Y78808D02*
Y100400D01*
X115500Y220900D02*
Y255646D01*
X112500Y217899D02*
X115500Y220900D01*
X112500Y212101D02*
Y217899D01*
Y212101D02*
X114500Y210100D01*
Y154843D02*
Y210100D01*
X475250Y94558D02*
X480250Y99558D01*
Y132701D01*
X458451Y154500D02*
X480250Y132701D01*
X455500Y154500D02*
X458451D01*
X661500Y77300D02*
Y279657D01*
X660400Y76200D02*
X661500Y77300D01*
Y279657D02*
X675500Y293657D01*
X172500Y171000D02*
Y197000D01*
Y171000D02*
X181809Y161691D01*
X19500Y250720D02*
X56280D01*
X70500Y236500D01*
X19500Y236000D02*
Y250720D01*
X70500Y179222D02*
X102000Y147722D01*
X70500Y179222D02*
Y236500D01*
X59500Y137000D02*
Y236500D01*
Y137000D02*
X90500Y106000D01*
X262213Y140399D02*
X266314Y136298D01*
Y133464D02*
X266569Y133209D01*
X266314Y133464D02*
Y136298D01*
X259379Y140399D02*
X262213D01*
X241500Y158278D02*
X259379Y140399D01*
X304800Y29542D02*
Y81300D01*
X266569Y130640D02*
Y133209D01*
Y130640D02*
X291638Y105571D01*
X301929D01*
X241500Y158278D02*
Y191500D01*
X181809Y161691D02*
X190875Y152626D01*
X174387Y139887D02*
X174500Y140000D01*
X190875Y152626D02*
X191293Y153044D01*
X174281Y139887D02*
X174387D01*
X270942Y66000D02*
X297400Y39542D01*
X304800Y25400D02*
Y29542D01*
X297400Y36942D02*
X304800Y29542D01*
X297400Y36942D02*
Y39542D01*
X236343Y66000D02*
X270942D01*
X88654Y100387D02*
X90117Y101851D01*
X88654Y99846D02*
Y100387D01*
X90117Y101851D02*
Y105617D01*
X90500Y106000D01*
X114500Y152900D02*
Y154843D01*
X102000Y145601D02*
X106101Y141500D01*
X111899D01*
X116000Y145601D01*
Y151399D01*
X102000Y145601D02*
Y147722D01*
X114500Y152900D02*
X116000Y151399D01*
X114500Y257500D02*
X138000Y281000D01*
X198000Y341000D01*
X114500Y154843D02*
X114843Y154500D01*
X114500Y255646D02*
Y257500D01*
X114843Y154500D02*
X160000D01*
X269365Y79135D02*
X290500Y58000D01*
X269365Y79135D02*
Y98135D01*
X248500Y119000D02*
X269365Y98135D01*
X304800Y81300D02*
X315500Y92000D01*
X483000Y329000D02*
X557000Y403000D01*
X586000D01*
X213843Y356000D02*
X269000D01*
X208000Y340500D02*
Y350157D01*
X213843Y356000D01*
X296000Y329000D02*
X483000D01*
X269000Y356000D02*
X296000Y329000D01*
X207500Y341000D02*
X208000Y340500D01*
X198000Y341000D02*
X207500D01*
X45417Y364740D02*
X54600Y373922D01*
X32500Y355557D02*
X41683Y364740D01*
X54600Y373922D02*
Y391600D01*
X41683Y364740D02*
X45417D01*
X32500Y308293D02*
Y355557D01*
Y308293D02*
X39379Y301414D01*
X54600Y391600D02*
X67500Y404500D01*
X17488Y238012D02*
X19500Y236000D01*
X5000Y238843D02*
Y267035D01*
X5831Y238012D02*
X17488D01*
X5000Y238843D02*
X5831Y238012D01*
X5000Y267035D02*
X39379Y301414D01*
X184100Y78808D02*
X196908Y66000D01*
X208515D01*
X226000Y96500D02*
X248500Y119000D01*
X208515Y66000D02*
X213515Y71000D01*
X231343D02*
X236343Y66000D01*
X213515Y71000D02*
X231343D01*
X19500Y236000D02*
X20500Y235000D01*
X139500Y221000D02*
Y261000D01*
X159500Y281000D01*
X288500Y249000D02*
Y282000D01*
X246000Y206500D02*
X288500Y249000D01*
X193041Y471000D02*
X227000D01*
X190541Y468500D02*
X193041Y471000D01*
X190000Y468500D02*
X190541D01*
X189500Y468000D02*
X190000Y468500D01*
X150000Y464500D02*
X153500Y468000D01*
X189500D01*
X134271Y464500D02*
X150000D01*
X98271Y428500D02*
X134271Y464500D01*
X82000Y428500D02*
X98271D01*
X67500Y404500D02*
X82000Y419000D01*
Y428500D01*
X66400Y481900D02*
X82000Y466300D01*
Y428500D02*
Y466300D01*
X54000Y494300D02*
Y505500D01*
Y494300D02*
X66400Y481900D01*
X21000Y138000D02*
Y168500D01*
X20500Y169000D02*
X21000Y168500D01*
X43500Y43000D02*
Y118157D01*
X21000Y138000D02*
X23657D01*
X43500Y118157D01*
Y43000D02*
X51000Y35500D01*
X102500D01*
X112600Y25400D01*
X139700D01*
X21000Y30000D02*
X28843D01*
X446500Y142000D02*
Y142541D01*
X442850Y146191D02*
X446500Y142541D01*
X442850Y146191D02*
Y201930D01*
X406400Y25400D02*
Y39100D01*
X376500Y69000D02*
X406400Y39100D01*
X468250Y125730D02*
Y127730D01*
X454363Y141617D02*
X468250Y127730D01*
X446883Y141617D02*
X454363D01*
X446500Y142000D02*
X446883Y141617D01*
X431800Y25400D02*
Y25800D01*
X468250Y62250D01*
Y125730D01*
X406400Y25400D02*
X431800D01*
X503515Y73500D02*
X616000D01*
X478000Y47985D02*
X503515Y73500D01*
X478000Y28000D02*
Y47985D01*
X584000Y166500D02*
Y187325D01*
X583250Y188075D02*
X584000Y187325D01*
X583250Y188075D02*
Y247750D01*
X584000Y248500D01*
X583250Y165750D02*
X584000Y166500D01*
X583250Y118759D02*
Y165750D01*
X605679Y108821D02*
X616000Y98500D01*
X593188Y108821D02*
X605679D01*
X583250Y118759D02*
X593188Y108821D01*
X675500Y293657D02*
Y314000D01*
X303000Y372500D02*
X315000D01*
X293500Y382000D02*
X303000Y372500D01*
X344500Y402000D02*
Y443000D01*
X315000Y372500D02*
X344500Y402000D01*
Y443000D02*
X352500Y451000D01*
X550500Y425000D02*
Y448657D01*
X548157Y451000D02*
X550500Y448657D01*
X352500Y451000D02*
X548157D01*
X550500Y425000D02*
X561500Y414000D01*
X578500D01*
X127500Y414500D02*
X134500Y407500D01*
X199500D01*
X12400Y481900D02*
X15600D01*
X3100Y472600D02*
X12400Y481900D01*
X16700Y404500D02*
Y430537D01*
X3100Y444137D02*
X16700Y430537D01*
X3100Y444137D02*
Y472600D01*
X192500Y165000D02*
X213000D01*
X191500Y166000D02*
X192500Y165000D01*
X213000D02*
X240500Y192500D01*
X241500Y191500D01*
X301929Y105571D02*
X315500Y92000D01*
X468250Y199930D02*
Y201930D01*
X601157Y481500D02*
X605000Y477657D01*
X238760Y506000D02*
X263260Y481500D01*
X601157D01*
X605000Y338592D02*
Y477657D01*
Y338592D02*
X632650Y310942D01*
X629000Y153000D02*
Y181468D01*
X632650Y185119D01*
X624500Y148500D02*
X629000Y153000D01*
X632650Y185119D02*
Y310942D01*
X611000Y148500D02*
X624500D01*
X238760Y506000D02*
Y508000D01*
D74*
X290450Y125730D02*
D03*
X315850D02*
D03*
X341250D02*
D03*
X366650D02*
D03*
X392050D02*
D03*
X417450D02*
D03*
X442850D02*
D03*
X468250D02*
D03*
X493650D02*
D03*
X519050D02*
D03*
X544450D02*
D03*
X569850D02*
D03*
X595250D02*
D03*
X620650D02*
D03*
X290450Y201930D02*
D03*
X315850D02*
D03*
X341250D02*
D03*
X366650D02*
D03*
X392050D02*
D03*
X417450D02*
D03*
X442850D02*
D03*
X468250D02*
D03*
X493650D02*
D03*
X519050D02*
D03*
X544450D02*
D03*
X569850D02*
D03*
X595250D02*
D03*
X365760Y508000D02*
D03*
X289560D02*
D03*
X340360D02*
D03*
X314960D02*
D03*
X391160D02*
D03*
X457200D02*
D03*
X482600D02*
D03*
X508000D02*
D03*
X533400D02*
D03*
X558800D02*
D03*
X584200D02*
D03*
X609600D02*
D03*
X264160D02*
D03*
X431800Y25400D02*
D03*
X406400D02*
D03*
X187960Y508000D02*
D03*
X635000Y25400D02*
D03*
X213360Y508000D02*
D03*
X609600Y25400D02*
D03*
X584200D02*
D03*
X558800D02*
D03*
X533400D02*
D03*
X330200D02*
D03*
X238760Y508000D02*
D03*
X381000Y25400D02*
D03*
X141600Y88000D02*
D03*
X304800Y25400D02*
D03*
X167000Y88000D02*
D03*
X355600Y25400D02*
D03*
X457200D02*
D03*
D75*
X620650Y201930D02*
D03*
X416560Y508000D02*
D03*
X635000D02*
D03*
X508000Y25400D02*
D03*
X116200Y88000D02*
D03*
X279400Y25400D02*
D03*
D76*
X132000Y510500D02*
D03*
X660000Y363500D02*
D03*
X660400Y76200D02*
D03*
X139700Y25400D02*
D03*
D77*
X20500Y169000D02*
D03*
Y235000D02*
D03*
D78*
X45000Y345400D02*
D03*
X15600Y456500D02*
D03*
X16700Y379100D02*
D03*
D79*
X19600Y345400D02*
D03*
X45000Y320000D02*
D03*
X19600D02*
D03*
X41000Y456500D02*
D03*
Y481900D02*
D03*
X67500Y404500D02*
D03*
X66400Y481900D02*
D03*
Y456500D02*
D03*
X42100Y379100D02*
D03*
Y404500D02*
D03*
X67500Y379100D02*
D03*
X16700Y404500D02*
D03*
X15600Y481900D02*
D03*
D80*
X662000Y418200D02*
D03*
Y443600D02*
D03*
X146000Y369800D02*
D03*
Y420600D02*
D03*
Y395200D02*
D03*
D81*
X662000Y469000D02*
D03*
X146000Y446000D02*
D03*
D82*
X21000Y138000D02*
D03*
Y30000D02*
D03*
D83*
X191101Y96500D02*
D03*
X119500Y215000D02*
D03*
X455500Y154500D02*
D03*
X654500Y158000D02*
D03*
X172500Y197000D02*
D03*
X70500Y236500D02*
D03*
X59500D02*
D03*
X259314Y133399D02*
D03*
X187500Y146000D02*
D03*
X191293Y153044D02*
D03*
X174281Y139887D02*
D03*
X257000Y30500D02*
D03*
X88654Y99846D02*
D03*
X140000Y142000D02*
D03*
X109000Y148500D02*
D03*
X121500Y190500D02*
D03*
X115500Y255646D02*
D03*
X91500Y288000D02*
D03*
X86500Y368500D02*
D03*
X254000D02*
D03*
X275500Y366500D02*
D03*
X288700Y69700D02*
D03*
X290500Y58000D02*
D03*
X586000Y403000D02*
D03*
X483000Y329000D02*
D03*
X208000Y340500D02*
D03*
X39379Y301414D02*
D03*
X248500Y119000D02*
D03*
X138000Y281000D02*
D03*
X160000Y154500D02*
D03*
X174789Y207132D02*
D03*
X139500Y221000D02*
D03*
X159500Y281000D02*
D03*
X163000Y208500D02*
D03*
X246000Y206500D02*
D03*
X288500Y282000D02*
D03*
X316500Y279621D02*
D03*
X227000Y471000D02*
D03*
X190000Y468500D02*
D03*
X82000Y428500D02*
D03*
X54000Y505500D02*
D03*
X376500Y69000D02*
D03*
X446500Y142000D02*
D03*
X475250Y94558D02*
D03*
X616000Y73500D02*
D03*
X478000Y28000D02*
D03*
X584000Y248500D02*
D03*
X616000Y98500D02*
D03*
X293500Y382000D02*
D03*
X317000Y400000D02*
D03*
X567500Y436000D02*
D03*
X578500Y414000D02*
D03*
X199500Y407500D02*
D03*
X177500Y414500D02*
D03*
X127500Y414500D02*
D03*
X191500Y166000D02*
D03*
X240500Y192500D02*
D03*
X315500Y92000D02*
D03*
X304500Y91500D02*
D03*
X76000Y362000D02*
D03*
X257000Y195500D02*
D03*
X90500Y106000D02*
D03*
X271345Y413152D02*
D03*
X622000Y444000D02*
D03*
X588000Y438000D02*
D03*
X596846Y421654D02*
D03*
X611000Y148500D02*
D03*
X328000Y183000D02*
D03*
X303000D02*
D03*
X297500Y239500D02*
D03*
M02*
