G04*
G04 #@! TF.GenerationSoftware,Altium Limited,Altium Designer,20.1.7 (139)*
G04*
G04 Layer_Color=8388736*
%FSLAX44Y44*%
%MOMM*%
G71*
G04*
G04 #@! TF.SameCoordinates,E8198626-57D4-45C4-B418-2AD32184AFD2*
G04*
G04*
G04 #@! TF.FilePolarity,Negative*
G04*
G01*
G75*
%ADD37C,3.0480*%
%ADD38R,0.7588X0.8858*%
%ADD39R,2.1000X2.1000*%
%ADD40R,1.6000X1.8000*%
%ADD41R,1.4500X0.5000*%
%ADD42R,0.8858X0.7588*%
%ADD43R,0.8000X0.8000*%
%ADD44R,1.5000X0.9000*%
%ADD45R,1.5000X1.1000*%
%ADD46R,0.9000X1.5000*%
%ADD47R,1.2000X0.7500*%
%ADD48R,0.6700X1.6200*%
%ADD49R,1.1000X1.5000*%
%ADD50R,0.7500X1.2000*%
%ADD51R,1.6200X0.6700*%
%ADD52R,1.1000X0.8000*%
%ADD53R,3.7000X2.4000*%
%ADD54R,1.8000X3.2000*%
%ADD55R,0.8000X2.4000*%
%ADD56R,2.7000X2.8000*%
%ADD57R,2.8000X2.7000*%
%ADD58R,2.9000X2.2000*%
%ADD59O,1.8000X2.2000*%
%ADD60R,1.8000X2.2000*%
%ADD61C,3.4000*%
G04:AMPARAMS|DCode=62|XSize=2.2mm|YSize=1.4mm|CornerRadius=0.46mm|HoleSize=0mm|Usage=FLASHONLY|Rotation=0.000|XOffset=0mm|YOffset=0mm|HoleType=Round|Shape=RoundedRectangle|*
%AMROUNDEDRECTD62*
21,1,2.2000,0.4800,0,0,0.0*
21,1,1.2800,1.4000,0,0,0.0*
1,1,0.9200,0.6400,-0.2400*
1,1,0.9200,-0.6400,-0.2400*
1,1,0.9200,-0.6400,0.2400*
1,1,0.9200,0.6400,0.2400*
%
%ADD62ROUNDEDRECTD62*%
%ADD63C,2.1000*%
%ADD64R,2.1000X2.1000*%
%ADD65R,1.9000X1.9000*%
%ADD66C,1.9000*%
%ADD67O,2.2000X1.8000*%
%ADD68R,2.2000X1.8000*%
%ADD69C,4.2000*%
%ADD70C,0.8000*%
D37*
X72500Y516500D02*
D03*
X669000Y506000D02*
D03*
X226000Y45000D02*
D03*
X669000Y20000D02*
D03*
D38*
X600808Y247500D02*
D03*
X625192D02*
D03*
D39*
X20500Y190000D02*
D03*
Y216000D02*
D03*
X247500Y79500D02*
D03*
D40*
X45000Y170000D02*
D03*
Y234000D02*
D03*
D41*
X47250Y189000D02*
D03*
Y195500D02*
D03*
Y202000D02*
D03*
Y208500D02*
D03*
Y215000D02*
D03*
D42*
X10500Y274808D02*
D03*
Y299192D02*
D03*
D43*
X596500Y389000D02*
D03*
X611500D02*
D03*
X264500Y427000D02*
D03*
X249500D02*
D03*
X250500Y400000D02*
D03*
X265500D02*
D03*
Y381000D02*
D03*
X250500D02*
D03*
D44*
X674000Y246000D02*
D03*
Y227000D02*
D03*
X273000Y69500D02*
D03*
X257000Y150500D02*
D03*
X634000Y430500D02*
D03*
X28500Y276500D02*
D03*
X257000Y169500D02*
D03*
X582000Y470500D02*
D03*
X609000D02*
D03*
X634000Y411500D02*
D03*
X648000Y245000D02*
D03*
Y188500D02*
D03*
X609000Y451500D02*
D03*
X582000D02*
D03*
X175000Y380500D02*
D03*
X90000Y273500D02*
D03*
X218440Y278740D02*
D03*
Y259740D02*
D03*
X332000Y87500D02*
D03*
Y68500D02*
D03*
D03*
X273000Y50500D02*
D03*
X648000Y226000D02*
D03*
X28500Y295500D02*
D03*
X648000Y207500D02*
D03*
X90000Y254500D02*
D03*
X175000Y399500D02*
D03*
X332000Y49500D02*
D03*
D45*
X673500Y190000D02*
D03*
Y209000D02*
D03*
X232000Y102500D02*
D03*
X635000Y469500D02*
D03*
X232000Y121500D02*
D03*
X307000Y68500D02*
D03*
X359000D02*
D03*
X224000Y446500D02*
D03*
X218440Y316840D02*
D03*
X195580Y219100D02*
D03*
X218440D02*
D03*
X172720D02*
D03*
X221000Y200500D02*
D03*
X115000Y131500D02*
D03*
X210000Y121500D02*
D03*
X635000Y450500D02*
D03*
X115000Y112500D02*
D03*
X172720Y238100D02*
D03*
X436880Y56540D02*
D03*
X198120Y181000D02*
D03*
X221000Y181500D02*
D03*
X224000Y427500D02*
D03*
X307000Y49500D02*
D03*
X436880Y75540D02*
D03*
X198120Y200000D02*
D03*
X218440Y297840D02*
D03*
X195580Y238100D02*
D03*
X218440D02*
D03*
X359000Y49500D02*
D03*
X210000Y102500D02*
D03*
D46*
X290500Y90000D02*
D03*
X271500D02*
D03*
X103480Y190500D02*
D03*
Y213360D02*
D03*
X356260Y93980D02*
D03*
X375260D02*
D03*
X103500Y168000D02*
D03*
X9500Y256000D02*
D03*
X287000Y425000D02*
D03*
Y449000D02*
D03*
X266500Y450000D02*
D03*
X610500Y368000D02*
D03*
X84500Y168000D02*
D03*
X84480Y190500D02*
D03*
Y213360D02*
D03*
X603500Y230000D02*
D03*
X405180Y233680D02*
D03*
X424180D02*
D03*
X77000Y346000D02*
D03*
X96000D02*
D03*
X28500Y256000D02*
D03*
X591500Y368000D02*
D03*
X247500Y450000D02*
D03*
X622500Y230000D02*
D03*
X306000Y425000D02*
D03*
Y449000D02*
D03*
X149200Y210820D02*
D03*
X130200D02*
D03*
D47*
X234500Y151000D02*
D03*
Y160500D02*
D03*
X172500Y436000D02*
D03*
Y426500D02*
D03*
X207500Y141500D02*
D03*
X199500Y445500D02*
D03*
X234500Y141500D02*
D03*
X172500Y445500D02*
D03*
X207500Y160500D02*
D03*
X199500Y426500D02*
D03*
D48*
X158000Y258000D02*
D03*
X166000D02*
D03*
X150000D02*
D03*
X182000Y342000D02*
D03*
X166000D02*
D03*
X174000D02*
D03*
X150000D02*
D03*
X134000D02*
D03*
X126000D02*
D03*
X174000Y258000D02*
D03*
X182000D02*
D03*
X142000D02*
D03*
X158000Y342000D02*
D03*
X142000D02*
D03*
X126000Y258000D02*
D03*
X134000D02*
D03*
D49*
X421640Y259080D02*
D03*
X444500Y233680D02*
D03*
X262500Y482000D02*
D03*
X610500Y344000D02*
D03*
X228500Y339000D02*
D03*
X461620Y259080D02*
D03*
X670500Y126000D02*
D03*
X454660Y96520D02*
D03*
X457860Y73660D02*
D03*
X395500Y96000D02*
D03*
X241960Y231140D02*
D03*
X404500Y50000D02*
D03*
X395500Y73000D02*
D03*
X50500Y295500D02*
D03*
X149200Y236220D02*
D03*
X103500Y234000D02*
D03*
X39500Y510000D02*
D03*
X44500Y430000D02*
D03*
X402640Y259080D02*
D03*
X442620D02*
D03*
X84500Y234000D02*
D03*
X247500Y339000D02*
D03*
X260960Y231140D02*
D03*
X435660Y96520D02*
D03*
X243500Y482000D02*
D03*
X385500Y50000D02*
D03*
X457860Y50800D02*
D03*
X591500Y344000D02*
D03*
X69500Y295500D02*
D03*
X651500Y126000D02*
D03*
X20500Y510000D02*
D03*
X25500Y430000D02*
D03*
X476860Y50800D02*
D03*
X463500Y233680D02*
D03*
X476860Y73660D02*
D03*
X414500Y96000D02*
D03*
Y73000D02*
D03*
X130200Y236220D02*
D03*
D50*
X668500Y172500D02*
D03*
X47500Y250500D02*
D03*
X668500Y145500D02*
D03*
X659000Y172500D02*
D03*
X649500D02*
D03*
X47500Y277500D02*
D03*
X57000Y250500D02*
D03*
X66500D02*
D03*
X649500Y145500D02*
D03*
X66500Y277500D02*
D03*
D51*
X196000Y288000D02*
D03*
Y328000D02*
D03*
X112000Y272000D02*
D03*
Y296000D02*
D03*
Y304000D02*
D03*
Y312000D02*
D03*
Y320000D02*
D03*
Y328000D02*
D03*
X196000Y280000D02*
D03*
Y272000D02*
D03*
Y296000D02*
D03*
X112000Y288000D02*
D03*
Y280000D02*
D03*
X196000Y304000D02*
D03*
Y312000D02*
D03*
Y320000D02*
D03*
D52*
X66040Y223280D02*
D03*
Y178040D02*
D03*
Y193040D02*
D03*
Y208280D02*
D03*
D53*
X163000Y178000D02*
D03*
D54*
X73000Y136500D02*
D03*
X72000Y20500D02*
D03*
Y61500D02*
D03*
X73000Y95500D02*
D03*
D55*
X163000Y116000D02*
D03*
X150300D02*
D03*
X137600D02*
D03*
X188400D02*
D03*
X175700D02*
D03*
D56*
X407300Y292100D02*
D03*
X456300D02*
D03*
D57*
X251460Y308980D02*
D03*
Y259980D02*
D03*
D58*
X22000Y70000D02*
D03*
Y102000D02*
D03*
D59*
X290450Y125730D02*
D03*
X315850D02*
D03*
X341250D02*
D03*
X366650D02*
D03*
X392050D02*
D03*
X417450D02*
D03*
X442850D02*
D03*
X468250D02*
D03*
X493650D02*
D03*
X519050D02*
D03*
X544450D02*
D03*
X569850D02*
D03*
X595250D02*
D03*
X620650D02*
D03*
X290450Y201930D02*
D03*
X315850D02*
D03*
X341250D02*
D03*
X366650D02*
D03*
X392050D02*
D03*
X417450D02*
D03*
X442850D02*
D03*
X468250D02*
D03*
X493650D02*
D03*
X519050D02*
D03*
X544450D02*
D03*
X569850D02*
D03*
X595250D02*
D03*
X365760Y508000D02*
D03*
X289560D02*
D03*
X340360D02*
D03*
X314960D02*
D03*
X391160D02*
D03*
X457200D02*
D03*
X482600D02*
D03*
X508000D02*
D03*
X533400D02*
D03*
X558800D02*
D03*
X584200D02*
D03*
X609600D02*
D03*
X264160D02*
D03*
X431800Y25400D02*
D03*
X406400D02*
D03*
X187960Y508000D02*
D03*
X635000Y25400D02*
D03*
X213360Y508000D02*
D03*
X609600Y25400D02*
D03*
X584200D02*
D03*
X558800D02*
D03*
X533400D02*
D03*
X330200D02*
D03*
X238760Y508000D02*
D03*
X381000Y25400D02*
D03*
X141600Y88000D02*
D03*
X304800Y25400D02*
D03*
X167000Y88000D02*
D03*
X355600Y25400D02*
D03*
X457200D02*
D03*
D60*
X620650Y201930D02*
D03*
X416560Y508000D02*
D03*
X635000D02*
D03*
X508000Y25400D02*
D03*
X116200Y88000D02*
D03*
X279400Y25400D02*
D03*
D61*
X132000Y510500D02*
D03*
X660000Y363500D02*
D03*
X660400Y76200D02*
D03*
X139700Y25400D02*
D03*
D62*
X20500Y169000D02*
D03*
Y235000D02*
D03*
D63*
X675500Y314000D02*
D03*
X610500D02*
D03*
Y269000D02*
D03*
X247500Y14500D02*
D03*
X202500D02*
D03*
Y79500D02*
D03*
D64*
X675500Y269000D02*
D03*
D65*
X45000Y345400D02*
D03*
X15600Y456500D02*
D03*
X16700Y379100D02*
D03*
D66*
X19600Y345400D02*
D03*
X45000Y320000D02*
D03*
X19600D02*
D03*
X41000Y456500D02*
D03*
Y481900D02*
D03*
X67500Y404500D02*
D03*
X66400Y481900D02*
D03*
Y456500D02*
D03*
X42100Y379100D02*
D03*
Y404500D02*
D03*
X67500Y379100D02*
D03*
X16700Y404500D02*
D03*
X15600Y481900D02*
D03*
D67*
X662000Y418200D02*
D03*
Y443600D02*
D03*
X146000Y369800D02*
D03*
Y420600D02*
D03*
Y395200D02*
D03*
D68*
X662000Y469000D02*
D03*
X146000Y446000D02*
D03*
D69*
X21000Y138000D02*
D03*
Y30000D02*
D03*
D70*
X191101Y96500D02*
D03*
X119500Y215000D02*
D03*
X455500Y154500D02*
D03*
X654500Y158000D02*
D03*
X172500Y197000D02*
D03*
X70500Y236500D02*
D03*
X59500D02*
D03*
X259314Y133399D02*
D03*
X187500Y146000D02*
D03*
X191293Y153044D02*
D03*
X174281Y139887D02*
D03*
X257000Y30500D02*
D03*
X88654Y99846D02*
D03*
X140000Y142000D02*
D03*
X109000Y148500D02*
D03*
X121500Y190500D02*
D03*
X115500Y255646D02*
D03*
X91500Y288000D02*
D03*
X86500Y368500D02*
D03*
X254000D02*
D03*
X275500Y366500D02*
D03*
X288700Y69700D02*
D03*
X290500Y58000D02*
D03*
X586000Y403000D02*
D03*
X483000Y329000D02*
D03*
X208000Y340500D02*
D03*
X39379Y301414D02*
D03*
X248500Y119000D02*
D03*
X138000Y281000D02*
D03*
X160000Y154500D02*
D03*
X174789Y207132D02*
D03*
X139500Y221000D02*
D03*
X159500Y281000D02*
D03*
X163000Y208500D02*
D03*
X246000Y206500D02*
D03*
X288500Y282000D02*
D03*
X316500Y279621D02*
D03*
X227000Y471000D02*
D03*
X190000Y468500D02*
D03*
X82000Y428500D02*
D03*
X54000Y505500D02*
D03*
X376500Y69000D02*
D03*
X446500Y142000D02*
D03*
X475250Y94558D02*
D03*
X616000Y73500D02*
D03*
X478000Y28000D02*
D03*
X584000Y248500D02*
D03*
X616000Y98500D02*
D03*
X293500Y382000D02*
D03*
X317000Y400000D02*
D03*
X567500Y436000D02*
D03*
X578500Y414000D02*
D03*
X199500Y407500D02*
D03*
X177500Y414500D02*
D03*
X127500Y414500D02*
D03*
X191500Y166000D02*
D03*
X240500Y192500D02*
D03*
X315500Y92000D02*
D03*
X304500Y91500D02*
D03*
X76000Y362000D02*
D03*
X257000Y195500D02*
D03*
X90500Y106000D02*
D03*
X271345Y413152D02*
D03*
X622000Y444000D02*
D03*
X588000Y438000D02*
D03*
X596846Y421654D02*
D03*
X611000Y148500D02*
D03*
X328000Y183000D02*
D03*
X303000D02*
D03*
X297500Y239500D02*
D03*
M02*
