G04*
G04 #@! TF.GenerationSoftware,Altium Limited,Altium Designer,20.1.7 (139)*
G04*
G04 Layer_Color=65535*
%FSLAX44Y44*%
%MOMM*%
G71*
G04*
G04 #@! TF.SameCoordinates,E8198626-57D4-45C4-B418-2AD32184AFD2*
G04*
G04*
G04 #@! TF.FilePolarity,Positive*
G04*
G01*
G75*
%ADD10C,0.2000*%
%ADD11C,0.2500*%
%ADD12C,0.2540*%
%ADD13C,0.3778*%
%ADD14C,0.2000*%
%ADD15C,0.1000*%
D10*
X633350Y170180D02*
G03*
X633350Y157480I0J-6350D01*
G01*
X169000Y510500D02*
G03*
X169000Y510500I-37000J0D01*
G01*
X697000Y363500D02*
G03*
X697000Y363500I-37000J0D01*
G01*
X697400Y76200D02*
G03*
X697400Y76200I-37000J0D01*
G01*
X176700Y25400D02*
G03*
X176700Y25400I-37000J0D01*
G01*
X549450Y108830D02*
X633350D01*
X277750D02*
X371650D01*
X609575Y218830D02*
X632500D01*
X540800D02*
X563725D01*
X609575D01*
X277750D02*
X366650D01*
X544450D01*
X277750Y108830D02*
Y218830D01*
X371650Y108830D02*
X549450D01*
X633350D02*
Y157480D01*
Y170430D02*
Y218830D01*
X-15125Y198000D02*
X-11125Y202000D01*
X-15125Y206000D02*
X-11125Y202000D01*
X-10125Y169000D02*
X-9125D01*
X-11125Y235000D02*
X-9125D01*
X-21125Y202000D02*
X-11125D01*
X-20125Y247000D02*
X-11125D01*
X-20125Y153000D02*
X-11125D01*
Y247000D01*
X5875Y162000D02*
Y240000D01*
X-125Y162000D02*
Y240000D01*
X-6125Y162000D02*
X9875D01*
X-6125D02*
Y241000D01*
X8875D01*
X49875Y181000D02*
Y185000D01*
Y220000D02*
Y223000D01*
X31875Y163000D02*
X35875D01*
X31875Y242000D02*
X34875D01*
X624000Y260500D02*
X658000D01*
X622000Y322500D02*
X663000D01*
X673000Y282500D02*
Y300500D01*
X613000Y282500D02*
Y300500D01*
X216000Y17000D02*
X234000D01*
X216000Y77000D02*
X234000D01*
X194000Y26000D02*
Y67000D01*
X256000Y28000D02*
Y62000D01*
X617600Y381380D02*
Y396620D01*
X590400Y381380D02*
X617600D01*
X590400D02*
Y396620D01*
X617600D01*
X243400Y434620D02*
X270600D01*
X243400Y419380D02*
Y434620D01*
Y419380D02*
X270600D01*
Y434620D01*
X271600Y392380D02*
Y407620D01*
X244400Y392380D02*
X271600D01*
X244400D02*
Y407620D01*
X271600D01*
X244400Y388620D02*
X271600D01*
X244400Y373380D02*
Y388620D01*
Y373380D02*
X271600D01*
Y388620D01*
X57700Y308951D02*
Y356830D01*
X6900D02*
X57700D01*
X6900Y308570D02*
Y356830D01*
Y308570D02*
X57700D01*
X663840Y218720D02*
X684160D01*
X663840D02*
Y254280D01*
X684160Y218720D02*
Y254280D01*
X663840D02*
X684160D01*
X663340Y217280D02*
X683660D01*
X663340Y181720D02*
Y217280D01*
X683660Y181720D02*
Y217280D01*
X663340Y181720D02*
X683660D01*
X180340Y520700D02*
X431800D01*
X172720D02*
X180340D01*
X172720Y495300D02*
Y520700D01*
Y495300D02*
X431800D01*
Y520700D01*
X321840Y60220D02*
X342160D01*
X321840D02*
Y95780D01*
X342160Y60220D02*
Y95780D01*
X321840D02*
X342160D01*
X4000Y367670D02*
Y415549D01*
Y367670D02*
X80200D01*
Y415930D01*
X4000D02*
X80200D01*
X208280Y325120D02*
X228600D01*
X208280Y289560D02*
Y325120D01*
X228600Y289560D02*
Y325120D01*
X208280Y289560D02*
X228600D01*
X157480Y200660D02*
Y220980D01*
X121920Y200660D02*
X157480D01*
X121920Y220980D02*
X157480D01*
X121920Y200660D02*
Y220980D01*
X187960Y172720D02*
X208280D01*
Y208280D01*
X187960Y172720D02*
Y208280D01*
X208280D01*
X164840Y407780D02*
X185160D01*
Y372220D02*
Y407780D01*
X164840Y372220D02*
Y407780D01*
Y372220D02*
X185160D01*
X99500Y13500D02*
Y58500D01*
X83500Y13500D02*
X99500D01*
X44500D02*
X60500D01*
X44500D02*
Y58500D01*
X45000Y59000D02*
X56250Y70250D01*
X60750D01*
X87750D02*
X99000Y59000D01*
X83250Y70250D02*
X87750D01*
X17220Y419840D02*
Y440160D01*
Y419840D02*
X52780D01*
X17220Y440160D02*
X52780D01*
Y419840D02*
Y440160D01*
X412780Y39840D02*
Y60160D01*
X377220D02*
X412780D01*
X377220Y39840D02*
X412780D01*
X377220D02*
Y60160D01*
X208280Y210820D02*
X228600D01*
Y246380D01*
X208280Y210820D02*
Y246380D01*
X228600D01*
X347980Y83820D02*
Y104140D01*
X383540D01*
X347980Y83820D02*
X383540D01*
Y104140D01*
X449580Y40640D02*
Y60960D01*
Y40640D02*
X485140D01*
X449580Y60960D02*
X485140D01*
Y40640D02*
Y60960D01*
X650240Y20320D02*
Y22225D01*
Y12700D02*
Y20320D01*
Y31750D02*
Y38100D01*
Y28575D02*
Y31750D01*
Y22225D02*
Y28575D01*
X492760Y12700D02*
X650240D01*
X492760Y38100D02*
X650240D01*
X492760Y12700D02*
Y38100D01*
X426720Y48260D02*
X447040D01*
Y83820D01*
X426720Y48260D02*
Y83820D01*
X447040D01*
X263220Y79840D02*
Y100160D01*
X298780D01*
X263220Y79840D02*
X298780D01*
Y100160D01*
X12220Y499840D02*
Y520160D01*
Y499840D02*
X47780D01*
X12220Y520160D02*
X47780D01*
Y499840D02*
Y520160D01*
X469900Y248920D02*
Y269240D01*
X434340D02*
X469900D01*
X434340Y248920D02*
X469900D01*
X434340D02*
Y269240D01*
X396900Y223520D02*
Y243840D01*
X432460D01*
X396900Y223520D02*
X432460D01*
Y243840D01*
X429920Y248920D02*
Y269240D01*
X394360D02*
X429920D01*
X394360Y248920D02*
X429920D01*
X394360D02*
Y269240D01*
X221840Y94220D02*
X242160D01*
Y129780D01*
X221840Y94220D02*
Y129780D01*
X242160D01*
X140920Y357100D02*
X142825D01*
X133300D02*
X140920D01*
X152350D02*
X158700D01*
X148540D02*
X152350D01*
X142825D02*
X148540D01*
X133300D02*
Y456160D01*
X158700Y357100D02*
Y456160D01*
X133300D02*
X158700D01*
X36780Y245840D02*
Y266160D01*
X1220Y245840D02*
X36780D01*
X1220Y266160D02*
X36780D01*
X1220Y245840D02*
Y266160D01*
X637840Y217720D02*
X658160D01*
X637840D02*
Y253280D01*
X658160Y217720D02*
Y253280D01*
X637840D02*
X658160D01*
X18340Y303780D02*
X38660D01*
Y268220D02*
Y303780D01*
X18340Y268220D02*
Y303780D01*
Y268220D02*
X38660D01*
X637840Y215780D02*
X658160D01*
Y180220D02*
Y215780D01*
X637840Y180220D02*
Y215780D01*
Y180220D02*
X658160D01*
X185420Y210820D02*
X205740D01*
Y246380D01*
X185420Y210820D02*
Y246380D01*
X205740D01*
X462940Y86360D02*
Y106680D01*
X427380D02*
X462940D01*
X427380Y86360D02*
X462940D01*
X427380D02*
Y106680D01*
X76220Y223840D02*
Y244160D01*
Y223840D02*
X111780D01*
X76220Y244160D02*
X111780D01*
Y223840D02*
Y244160D01*
X618780Y333840D02*
Y354160D01*
X583220D02*
X618780D01*
X583220Y333840D02*
X618780D01*
X583220D02*
Y354160D01*
X643220Y115840D02*
Y136160D01*
Y115840D02*
X678780D01*
X643220Y136160D02*
X678780D01*
Y115840D02*
Y136160D01*
X262840Y42220D02*
X283160D01*
X262840D02*
Y77780D01*
X283160Y42220D02*
Y77780D01*
X262840D02*
X283160D01*
X630780Y219840D02*
Y240160D01*
X595220Y219840D02*
X630780D01*
X595220Y240160D02*
X630780D01*
X595220Y219840D02*
Y240160D01*
X387220Y62840D02*
Y83160D01*
Y62840D02*
X422780D01*
X387220Y83160D02*
X422780D01*
Y62840D02*
Y83160D01*
X210840Y173220D02*
X231160D01*
Y208780D01*
X210840Y173220D02*
Y208780D01*
X231160D01*
X77780Y285340D02*
Y305660D01*
X42220D02*
X77780D01*
X42220Y285340D02*
X77780D01*
X42220D02*
Y305660D01*
X38000Y57000D02*
Y115000D01*
X6000D02*
X38000D01*
X6000Y57000D02*
X38000D01*
X6000D02*
Y115000D01*
X270780Y471840D02*
Y492160D01*
X235220D02*
X270780D01*
X235220Y471840D02*
X270780D01*
X235220D02*
Y492160D01*
X220220Y328840D02*
Y349160D01*
Y328840D02*
X255780D01*
X220220Y349160D02*
X255780D01*
Y328840D02*
Y349160D01*
X650240Y495300D02*
Y520700D01*
X441960Y495300D02*
X650240D01*
X441960Y520700D02*
X650240D01*
X441960Y504825D02*
Y511175D01*
Y501650D02*
Y504825D01*
Y495300D02*
Y501650D01*
Y513080D02*
Y520700D01*
Y511175D02*
Y513080D01*
X246840Y177780D02*
X267160D01*
Y142220D02*
Y177780D01*
X246840Y142220D02*
Y177780D01*
Y142220D02*
X267160D01*
X104840Y139780D02*
X125160D01*
X104840Y104220D02*
Y139780D01*
X125160Y104220D02*
Y139780D01*
X104840Y104220D02*
X125160D01*
X103500Y75300D02*
Y100700D01*
X179700D01*
X103500Y75300D02*
X179700D01*
Y94350D02*
Y100700D01*
Y75300D02*
Y82920D01*
X179660Y83000D02*
Y94000D01*
X199840Y129780D02*
X220160D01*
X199840Y94220D02*
Y129780D01*
X220160Y94220D02*
Y129780D01*
X199840Y94220D02*
X220160D01*
X449580Y63500D02*
Y83820D01*
Y63500D02*
X485140D01*
X449580Y83820D02*
X485140D01*
Y63500D02*
Y83820D01*
X264160Y12700D02*
Y38100D01*
X472440D01*
X264160Y12700D02*
X472440D01*
Y22225D02*
Y28575D01*
Y31750D01*
Y38100D01*
Y12700D02*
Y20320D01*
Y22225D01*
X2900Y445070D02*
Y492949D01*
Y445070D02*
X79100D01*
Y493330D01*
X2900D02*
X79100D01*
X623840Y438780D02*
X644160D01*
Y403220D02*
Y438780D01*
X623840Y403220D02*
Y438780D01*
Y403220D02*
X644160D01*
X296840Y76780D02*
X317160D01*
X296840Y41220D02*
Y76780D01*
X317160Y41220D02*
Y76780D01*
X296840Y41220D02*
X317160D01*
X387220Y85840D02*
Y106160D01*
Y85840D02*
X422780D01*
X387220Y106160D02*
X422780D01*
Y85840D02*
Y106160D01*
X624840Y442220D02*
X645160D01*
Y477780D01*
X624840Y442220D02*
Y477780D01*
X645160D01*
X571840Y478780D02*
X592160D01*
Y443220D02*
Y478780D01*
X571840Y443220D02*
Y478780D01*
Y443220D02*
X592160D01*
X278720Y438840D02*
Y459160D01*
X314280D01*
X278720Y438840D02*
X314280D01*
Y459160D01*
X348840Y76780D02*
X369160D01*
X348840Y41220D02*
Y76780D01*
X369160Y41220D02*
Y76780D01*
X348840Y41220D02*
X369160D01*
X598840Y478780D02*
X619160D01*
Y443220D02*
Y478780D01*
X598840Y443220D02*
Y478780D01*
Y443220D02*
X619160D01*
X436220Y223520D02*
Y243840D01*
Y223520D02*
X471780D01*
X436220Y243840D02*
X471780D01*
Y223520D02*
Y243840D01*
X649300Y481700D02*
X674700D01*
Y405500D02*
Y481700D01*
X649300Y405500D02*
Y481700D01*
X668350Y405500D02*
X674700D01*
X649300D02*
X656920D01*
X657000Y405540D02*
X668000D01*
X583220Y357840D02*
Y378160D01*
X618780D01*
X583220Y357840D02*
X618780D01*
Y378160D01*
X157480Y226060D02*
Y246380D01*
X121920D02*
X157480D01*
X121920Y226060D02*
X157480D01*
X121920D02*
Y246380D01*
X213840Y419220D02*
X234160D01*
Y454780D01*
X213840Y419220D02*
Y454780D01*
X234160D01*
X162560Y210820D02*
X182880D01*
Y246380D01*
X162560Y210820D02*
Y246380D01*
X182880D01*
X239220Y439840D02*
Y460160D01*
X274780D01*
X239220Y439840D02*
X274780D01*
Y460160D01*
X79840Y246220D02*
X100160D01*
X79840D02*
Y281780D01*
X100160Y246220D02*
Y281780D01*
X79840D02*
X100160D01*
X170300Y270850D02*
X183150Y283700D01*
X124850Y270850D02*
X170300D01*
X124850D02*
Y329150D01*
X183150D01*
Y283700D02*
Y329150D01*
X189000Y333000D02*
Y335000D01*
X187000D02*
X189000D01*
Y333000D02*
Y335000D01*
X187000D02*
X189000D01*
X119000Y333000D02*
Y335000D01*
X121000D01*
X119000Y265000D02*
X121000D01*
X119000D02*
Y267000D01*
X188000Y264000D02*
X190000Y266000D01*
X73000Y255000D02*
Y273000D01*
X41000Y255000D02*
Y273000D01*
X53000D02*
X61000D01*
X643000Y150000D02*
Y168000D01*
X675000Y150000D02*
Y168000D01*
X655000Y150000D02*
X663000D01*
X472800Y273100D02*
Y311100D01*
X390800D02*
X472800D01*
X390800Y273100D02*
X472800D01*
X390800D02*
Y311100D01*
X212000Y167000D02*
X230000D01*
X212000Y135000D02*
X230000D01*
X212000Y147000D02*
Y155000D01*
X177000Y420000D02*
X195000D01*
X177000Y452000D02*
X195000D01*
Y432000D02*
Y440000D01*
X129000Y128000D02*
X132000D01*
X194000D02*
X197000D01*
Y166000D01*
X190000D02*
X197000D01*
X183000D02*
X191000D01*
X129000D02*
X143000D01*
X129000Y165000D02*
Y166000D01*
Y128000D02*
Y165000D01*
X321840Y41220D02*
X342160D01*
X321840D02*
Y76780D01*
X342160Y41220D02*
Y76780D01*
X321840D02*
X342160D01*
X111760Y180340D02*
Y200660D01*
X76200Y180340D02*
X111760D01*
X76200Y200660D02*
X111760D01*
X76200Y180340D02*
Y200660D01*
X76220Y157840D02*
Y178160D01*
X111780D01*
X76220Y157840D02*
X111780D01*
Y178160D01*
X278720Y414840D02*
Y435160D01*
X314280D01*
X278720Y414840D02*
X314280D01*
Y435160D01*
X232460Y243480D02*
X270460D01*
Y325480D01*
X232460Y243480D02*
Y325480D01*
X270460D01*
X58420Y171570D02*
Y199510D01*
Y171570D02*
X73660D01*
X58420Y199510D02*
X73660D01*
Y171570D02*
Y199510D01*
X111760Y203200D02*
Y223520D01*
X76200Y203200D02*
X111760D01*
X76200Y223520D02*
X111760D01*
X76200Y203200D02*
Y223520D01*
X68720Y335840D02*
Y356160D01*
X104280D01*
X68720Y335840D02*
X104280D01*
Y356160D01*
X73660Y201810D02*
Y229750D01*
X58420D02*
X73660D01*
X58420Y201810D02*
X73660D01*
X58420D02*
Y229750D01*
X208280Y287020D02*
X228600D01*
Y251460D02*
Y287020D01*
X208280Y251460D02*
Y287020D01*
Y251460D02*
X228600D01*
X45500Y98500D02*
Y143500D01*
X61500D01*
X84500D02*
X100500D01*
Y98500D02*
Y143500D01*
X88750Y86750D02*
X100000Y98000D01*
X84250Y86750D02*
X88750D01*
X46000Y98000D02*
X57250Y86750D01*
X61750D01*
X233680Y220980D02*
Y241300D01*
Y220980D02*
X269240D01*
X233680Y241300D02*
X269240D01*
Y220980D02*
Y241300D01*
X334800Y5699D02*
X339465D01*
X337133Y8031D02*
Y3366D01*
X341798Y8031D02*
X342964Y9198D01*
X345297D01*
X346463Y8031D01*
Y6865D01*
X345297Y5699D01*
X344130D01*
X345297D01*
X346463Y4533D01*
Y3366D01*
X345297Y2200D01*
X342964D01*
X341798Y3366D01*
X348796Y2200D02*
Y3366D01*
X349962D01*
Y2200D01*
X348796D01*
X354627Y8031D02*
X355793Y9198D01*
X358126D01*
X359292Y8031D01*
Y6865D01*
X358126Y5699D01*
X356959D01*
X358126D01*
X359292Y4533D01*
Y3366D01*
X358126Y2200D01*
X355793D01*
X354627Y3366D01*
X361625Y9198D02*
Y4533D01*
X363957Y2200D01*
X366290Y4533D01*
Y9198D01*
X373000Y5499D02*
X377665D01*
X375333Y7832D02*
Y3166D01*
X384663Y8998D02*
X379998D01*
Y5499D01*
X382330Y6665D01*
X383497D01*
X384663Y5499D01*
Y3166D01*
X383497Y2000D01*
X381164D01*
X379998Y3166D01*
X386996Y8998D02*
Y4333D01*
X389328Y2000D01*
X391661Y4333D01*
Y8998D01*
X401500Y5999D02*
X403833Y8332D01*
X406165Y5999D01*
X413163Y8332D02*
X411997Y9498D01*
X409664D01*
X408498Y8332D01*
Y3666D01*
X409664Y2500D01*
X411997D01*
X413163Y3666D01*
Y5999D01*
X410830D01*
X415495Y2500D02*
Y9498D01*
X420161Y2500D01*
Y9498D01*
X422493D02*
Y2500D01*
X425992D01*
X427158Y3666D01*
Y8332D01*
X425992Y9498D01*
X422493D01*
X429491Y5999D02*
X431824Y8332D01*
X434156Y5999D01*
X499189Y57932D02*
X502988Y60640D01*
X506242Y60095D01*
X505696Y56842D01*
X501898Y54134D01*
X504747Y56165D01*
X502039Y59963D01*
X508950Y56296D02*
X503251Y52234D01*
X505283Y49385D01*
X506909Y49113D01*
X510708Y51821D01*
X510981Y53447D01*
X508950Y56296D01*
X512062Y49921D02*
X513689Y49648D01*
X515043Y47749D01*
X514770Y46122D01*
X510971Y43414D01*
X509345Y43687D01*
X507991Y45587D01*
X508263Y47213D01*
X512062Y49921D01*
X521983Y56734D02*
X525781Y59442D01*
X529035Y58896D01*
X528489Y55643D01*
X524691Y52935D01*
X527540Y54966D01*
X524832Y58765D01*
X531743Y55098D02*
X526045Y51036D01*
X528076Y48186D01*
X529702Y47914D01*
X533501Y50622D01*
X533774Y52249D01*
X531743Y55098D01*
X530107Y45338D02*
X531461Y43438D01*
X530784Y44388D01*
X536482Y48450D01*
X534855Y48723D01*
X545483Y56734D02*
X549281Y59442D01*
X552535Y58896D01*
X551989Y55643D01*
X548191Y52935D01*
X551040Y54966D01*
X548332Y58765D01*
X555243Y55098D02*
X549545Y51036D01*
X551576Y48186D01*
X553202Y47914D01*
X557001Y50622D01*
X557274Y52249D01*
X555243Y55098D01*
X556315Y41539D02*
X553607Y45338D01*
X560113Y44247D01*
X561063Y44924D01*
X561336Y46550D01*
X559982Y48450D01*
X558355Y48723D01*
X570289Y59532D02*
X574088Y62240D01*
X577342Y61695D01*
X576796Y58442D01*
X572998Y55734D01*
X575847Y57765D01*
X573139Y61563D01*
X580050Y57896D02*
X574352Y53834D01*
X576383Y50985D01*
X578009Y50712D01*
X581808Y53421D01*
X582081Y55047D01*
X580050Y57896D01*
X583162Y51521D02*
X584789Y51248D01*
X586143Y49349D01*
X585870Y47722D01*
X584920Y47045D01*
X583294Y47318D01*
X582617Y48268D01*
X583294Y47318D01*
X583021Y45691D01*
X582071Y45014D01*
X580445Y45287D01*
X579091Y47186D01*
X579363Y48813D01*
X576889Y81732D02*
X580688Y84440D01*
X583942Y83895D01*
X583396Y80642D01*
X579598Y77934D01*
X582447Y79965D01*
X579739Y83763D01*
X586650Y80096D02*
X580951Y76034D01*
X582982Y73185D01*
X584609Y72913D01*
X588408Y75620D01*
X588681Y77247D01*
X586650Y80096D01*
X587044Y67487D02*
X592743Y71549D01*
X587863Y72367D01*
X590571Y68568D01*
X589076Y64638D02*
X595582Y63547D01*
X600594Y58526D02*
X600867Y60153D01*
X599513Y62052D01*
X597886Y62325D01*
X596936Y61648D01*
X596664Y60021D01*
X598018Y58122D01*
X597745Y56495D01*
X596795Y55818D01*
X595169Y56091D01*
X593815Y57990D01*
X594087Y59617D01*
X602898Y57304D02*
X597200Y53242D01*
X599231Y50393D01*
X600857Y50120D01*
X604656Y52828D01*
X604929Y54455D01*
X602898Y57304D01*
X601262Y47544D02*
X605060Y50252D01*
X608314Y49706D01*
X607768Y46453D01*
X603970Y43745D01*
X606819Y45776D01*
X604111Y49575D01*
X594689Y84332D02*
X598488Y87040D01*
X601742Y86495D01*
X601196Y83242D01*
X597397Y80534D01*
X600247Y82565D01*
X597539Y86363D01*
X604450Y82696D02*
X598751Y78634D01*
X600783Y75785D01*
X602409Y75512D01*
X606208Y78221D01*
X606481Y79847D01*
X604450Y82696D01*
X611220Y73199D02*
X608512Y76998D01*
X605663Y74967D01*
X607966Y73745D01*
X608643Y72795D01*
X608371Y71168D01*
X606471Y69814D01*
X604845Y70087D01*
X603491Y71986D01*
X603763Y73613D01*
X606876Y67238D02*
X613382Y66147D01*
X618394Y61126D02*
X618667Y62753D01*
X617313Y64652D01*
X615686Y64925D01*
X614736Y64248D01*
X614464Y62621D01*
X615818Y60722D01*
X615545Y59095D01*
X614595Y58418D01*
X612969Y58691D01*
X611615Y60590D01*
X611887Y62217D01*
X622456Y55428D02*
X622729Y57055D01*
X621375Y58954D01*
X619748Y59227D01*
X615949Y56519D01*
X615677Y54892D01*
X617031Y52993D01*
X618657Y52720D01*
X624760Y54206D02*
X619062Y50144D01*
X621770Y46345D01*
D11*
X587750Y389250D02*
G03*
X587750Y389250I-1250J0D01*
G01*
X240750Y427250D02*
G03*
X240750Y427250I-1250J0D01*
G01*
X241750Y400250D02*
G03*
X241750Y400250I-1250J0D01*
G01*
Y381250D02*
G03*
X241750Y381250I-1250J0D01*
G01*
D12*
X198000Y262000D02*
G03*
X198000Y262000I-1000J0D01*
G01*
X595220Y239880D02*
X631400D01*
Y255120D01*
X595220D02*
X631400D01*
X18120Y268600D02*
Y304780D01*
X2880Y268600D02*
X18120D01*
X2880D02*
Y304780D01*
X371364Y405918D02*
Y416075D01*
X376442Y421153D01*
X381521Y416075D01*
Y405918D01*
Y413536D01*
X371364D01*
X386599Y421153D02*
Y405918D01*
X394216D01*
X396756Y408457D01*
Y410996D01*
Y413536D01*
X394216Y416075D01*
X386599D01*
X411991Y421153D02*
Y405918D01*
X404373D01*
X401834Y408457D01*
Y413536D01*
X404373Y416075D01*
X411991D01*
X417069D02*
Y408457D01*
X419608Y405918D01*
X427226D01*
Y416075D01*
X432304D02*
Y405918D01*
Y410996D01*
X434843Y413536D01*
X437383Y416075D01*
X439922D01*
X450078D02*
X455157D01*
X457696Y413536D01*
Y405918D01*
X450078D01*
X447539Y408457D01*
X450078Y410996D01*
X457696D01*
X462774Y421153D02*
Y405918D01*
Y413536D01*
X465313Y416075D01*
X470392D01*
X472931Y413536D01*
Y405918D01*
X478009D02*
Y416075D01*
X480549D01*
X483088Y413536D01*
Y405918D01*
Y413536D01*
X485627Y416075D01*
X488166Y413536D01*
Y405918D01*
X495784Y416075D02*
X500862D01*
X503401Y413536D01*
Y405918D01*
X495784D01*
X493244Y408457D01*
X495784Y410996D01*
X503401D01*
X508479Y405918D02*
Y416075D01*
X516097D01*
X518636Y413536D01*
Y405918D01*
X417069Y396775D02*
Y381540D01*
X424687D01*
X427226Y384079D01*
Y386618D01*
X424687Y389157D01*
X417069D01*
X424687D01*
X427226Y391697D01*
Y394236D01*
X424687Y396775D01*
X417069D01*
X434843Y391697D02*
X439922D01*
X442461Y389157D01*
Y381540D01*
X434843D01*
X432304Y384079D01*
X434843Y386618D01*
X442461D01*
X457696Y396775D02*
Y381540D01*
X450078D01*
X447539Y384079D01*
Y389157D01*
X450078Y391697D01*
X457696D01*
X470392Y381540D02*
X465313D01*
X462774Y384079D01*
Y389157D01*
X465313Y391697D01*
X470392D01*
X472931Y389157D01*
Y386618D01*
X462774D01*
X123140Y438380D02*
X128218D01*
X125679D01*
Y453615D01*
X123140Y451076D01*
X123820Y65140D02*
Y70218D01*
Y67679D01*
X108585D01*
X111124Y65140D01*
D13*
X593696Y245214D02*
Y250294D01*
X8214Y306304D02*
X13294D01*
D14*
X45000Y59000D02*
D03*
X99000D02*
D03*
X100000Y98000D02*
D03*
X46000D02*
D03*
D15*
X402500Y370500D02*
Y373832D01*
X404166Y375498D01*
X405832Y373832D01*
Y370500D01*
Y372999D01*
X402500D01*
X407498Y373832D02*
Y370500D01*
Y372166D01*
X408331Y372999D01*
X409165Y373832D01*
X409998D01*
X415829Y375498D02*
Y370500D01*
X413330D01*
X412497Y371333D01*
Y372999D01*
X413330Y373832D01*
X415829D01*
X417495D02*
Y371333D01*
X418328Y370500D01*
X420827D01*
Y373832D01*
X422494Y370500D02*
X424160D01*
X423326D01*
Y373832D01*
X422494D01*
X426659Y370500D02*
Y373832D01*
X429158D01*
X429991Y372999D01*
Y370500D01*
X432490D02*
X434156D01*
X434989Y371333D01*
Y372999D01*
X434156Y373832D01*
X432490D01*
X431657Y372999D01*
Y371333D01*
X432490Y370500D01*
X441654Y375498D02*
Y371333D01*
X442487Y370500D01*
X444153D01*
X444986Y371333D01*
Y375498D01*
X446652Y370500D02*
Y373832D01*
X449151D01*
X449985Y372999D01*
Y370500D01*
X452484D02*
X454150D01*
X454983Y371333D01*
Y372999D01*
X454150Y373832D01*
X452484D01*
X451651Y372999D01*
Y371333D01*
X452484Y370500D01*
X461647Y375498D02*
Y370500D01*
X464146D01*
X464980Y371333D01*
Y372166D01*
X464146Y372999D01*
X461647D01*
X464146D01*
X464980Y373832D01*
Y374665D01*
X464146Y375498D01*
X461647D01*
X467479Y370500D02*
X469145D01*
X469978Y371333D01*
Y372999D01*
X469145Y373832D01*
X467479D01*
X466646Y372999D01*
Y371333D01*
X467479Y370500D01*
X472477Y373832D02*
X474143D01*
X474976Y372999D01*
Y370500D01*
X472477D01*
X471644Y371333D01*
X472477Y372166D01*
X474976D01*
X476642Y373832D02*
Y370500D01*
Y372166D01*
X477476Y372999D01*
X478308Y373832D01*
X479142D01*
X484973Y375498D02*
Y370500D01*
X482474D01*
X481641Y371333D01*
Y372999D01*
X482474Y373832D01*
X484973D01*
X278832Y8498D02*
X277166D01*
X277999D01*
Y4333D01*
X277166Y3500D01*
X276333D01*
X275500Y4333D01*
X280498Y3500D02*
X282164D01*
X281331D01*
Y8498D01*
X280498Y7665D01*
X506832Y9498D02*
X505166D01*
X505999D01*
Y5333D01*
X505166Y4500D01*
X504333D01*
X503500Y5333D01*
X511831Y4500D02*
X508498D01*
X511831Y7832D01*
Y8665D01*
X510998Y9498D01*
X509331D01*
X508498Y8665D01*
X683498Y473668D02*
Y475334D01*
Y474501D01*
X679333D01*
X678500Y475334D01*
Y476167D01*
X679333Y477000D01*
X678500Y472002D02*
X683498D01*
Y469502D01*
X682665Y468669D01*
X680999D01*
X680166Y469502D01*
Y472002D01*
X678500Y467003D02*
Y465337D01*
Y466170D01*
X683498D01*
X682665Y467003D01*
X581500Y231998D02*
Y227833D01*
X582333Y227000D01*
X583999D01*
X584832Y227833D01*
Y231998D01*
X586498Y227000D02*
X588164D01*
X587331D01*
Y231998D01*
X586498Y231165D01*
X287000Y525500D02*
X288666D01*
X287833D01*
Y530498D01*
X287000Y529665D01*
X291165D02*
X291998Y530498D01*
X293664D01*
X294498Y529665D01*
Y528832D01*
X293664Y527999D01*
X292831D01*
X293664D01*
X294498Y527166D01*
Y526333D01*
X293664Y525500D01*
X291998D01*
X291165Y526333D01*
X311000Y525000D02*
X312666D01*
X311833D01*
Y529998D01*
X311000Y529165D01*
X318498Y525000D02*
X315165D01*
X318498Y528332D01*
Y529165D01*
X317665Y529998D01*
X315998D01*
X315165Y529165D01*
X337000Y526000D02*
X338666D01*
X337833D01*
Y530998D01*
X337000Y530165D01*
X341165Y526000D02*
X342831D01*
X341998D01*
Y530998D01*
X341165Y530165D01*
X362000Y525500D02*
X363666D01*
X362833D01*
Y530498D01*
X362000Y529665D01*
X366165D02*
X366998Y530498D01*
X368665D01*
X369498Y529665D01*
Y526333D01*
X368665Y525500D01*
X366998D01*
X366165Y526333D01*
Y529665D01*
X389000Y526333D02*
X389833Y525500D01*
X391499D01*
X392332Y526333D01*
Y529665D01*
X391499Y530498D01*
X389833D01*
X389000Y529665D01*
Y528832D01*
X389833Y527999D01*
X392332D01*
X415500Y529165D02*
X416333Y529998D01*
X417999D01*
X418832Y529165D01*
Y528332D01*
X417999Y527499D01*
X418832Y526666D01*
Y525833D01*
X417999Y525000D01*
X416333D01*
X415500Y525833D01*
Y526666D01*
X416333Y527499D01*
X415500Y528332D01*
Y529165D01*
X416333Y527499D02*
X417999D01*
X455500Y530498D02*
X458832D01*
Y529665D01*
X455500Y526333D01*
Y525500D01*
X483332Y530498D02*
X481666Y529665D01*
X480000Y527999D01*
Y526333D01*
X480833Y525500D01*
X482499D01*
X483332Y526333D01*
Y527166D01*
X482499Y527999D01*
X480000D01*
X509332Y529498D02*
X506000D01*
Y526999D01*
X507666Y527832D01*
X508499D01*
X509332Y526999D01*
Y525333D01*
X508499Y524500D01*
X506833D01*
X506000Y525333D01*
X533999Y524500D02*
Y529498D01*
X531500Y526999D01*
X534832D01*
X557000Y528665D02*
X557833Y529498D01*
X559499D01*
X560332Y528665D01*
Y527832D01*
X559499Y526999D01*
X558666D01*
X559499D01*
X560332Y526166D01*
Y525333D01*
X559499Y524500D01*
X557833D01*
X557000Y525333D01*
X585832Y525000D02*
X582500D01*
X585832Y528332D01*
Y529165D01*
X584999Y529998D01*
X583333D01*
X582500Y529165D01*
X598000Y528998D02*
X601332D01*
X599666D01*
Y524000D01*
X602998Y528998D02*
X606331Y524000D01*
Y528998D02*
X602998Y524000D01*
X607997Y526499D02*
X611329D01*
X612995Y524000D02*
X615494Y526499D01*
X612995Y528998D01*
X617160Y524000D02*
X618826D01*
X617994D01*
Y528998D01*
X617160Y528165D01*
X627000Y528665D02*
X627833Y529498D01*
X629499D01*
X630332Y528665D01*
Y525333D01*
X629499Y524500D01*
X627833D01*
X627000Y525333D01*
Y528665D01*
X631998Y526999D02*
X635331D01*
X636997Y524500D02*
X639496Y526999D01*
X636997Y529498D01*
X641162Y524500D02*
Y529498D01*
X643661D01*
X644494Y528665D01*
Y526999D01*
X643661Y526166D01*
X641162D01*
X642828D02*
X644494Y524500D01*
X646160Y527832D02*
X649493Y524500D01*
X647827Y526166D01*
X649493Y527832D01*
X646160Y524500D01*
X259832Y530165D02*
X258999Y530998D01*
X257333D01*
X256500Y530165D01*
Y526833D01*
X257333Y526000D01*
X258999D01*
X259832Y526833D01*
Y528499D01*
X258166D01*
X261498Y526000D02*
Y530998D01*
X264831Y526000D01*
Y530998D01*
X266497D02*
Y526000D01*
X268996D01*
X269829Y526833D01*
Y530165D01*
X268996Y530998D01*
X266497D01*
X228500Y525500D02*
Y528832D01*
X230166Y530498D01*
X231832Y528832D01*
Y525500D01*
Y527999D01*
X228500D01*
X233498Y525500D02*
Y530498D01*
X235998D01*
X236831Y529665D01*
Y527999D01*
X235998Y527166D01*
X233498D01*
X235165D02*
X236831Y525500D01*
X241829Y530498D02*
X238497D01*
Y525500D01*
X241829D01*
X238497Y527999D02*
X240163D01*
X246827Y530498D02*
X243495D01*
Y527999D01*
X245161D01*
X243495D01*
Y525500D01*
X207832Y529165D02*
X206999Y529998D01*
X205333D01*
X204500Y529165D01*
Y528332D01*
X205333Y527499D01*
X206999D01*
X207832Y526666D01*
Y525833D01*
X206999Y525000D01*
X205333D01*
X204500Y525833D01*
X209498Y529998D02*
Y525000D01*
X211998D01*
X212831Y525833D01*
Y529165D01*
X211998Y529998D01*
X209498D01*
X214497Y525000D02*
Y528332D01*
X216163Y529998D01*
X217829Y528332D01*
Y525000D01*
Y527499D01*
X214497D01*
X181332Y528665D02*
X180499Y529498D01*
X178833D01*
X178000Y528665D01*
Y527832D01*
X178833Y526999D01*
X180499D01*
X181332Y526166D01*
Y525333D01*
X180499Y524500D01*
X178833D01*
X178000Y525333D01*
X186331Y528665D02*
X185497Y529498D01*
X183831D01*
X182998Y528665D01*
Y525333D01*
X183831Y524500D01*
X185497D01*
X186331Y525333D01*
X187997Y529498D02*
Y524500D01*
X191329D01*
X445100Y8298D02*
Y3300D01*
X446766Y4966D01*
X448432Y3300D01*
Y8298D01*
X450098D02*
Y3300D01*
Y5799D01*
X453431D01*
Y8298D01*
Y3300D01*
X455097D02*
Y6632D01*
X456763Y8298D01*
X458429Y6632D01*
Y3300D01*
Y5799D01*
X455097D01*
X460095Y8298D02*
X463427D01*
X461761D01*
Y3300D01*
X465093Y7465D02*
X465927Y8298D01*
X467593D01*
X468426Y7465D01*
Y6632D01*
X466760Y4966D01*
Y4133D02*
Y3300D01*
X470092Y7465D02*
X470925Y8298D01*
X472591D01*
X473424Y7465D01*
Y6632D01*
X471758Y4966D01*
Y4133D02*
Y3300D01*
X293526Y3506D02*
X294412Y3970D01*
X293969Y3738D01*
X295363Y1083D01*
X294921Y850D01*
X295806Y1315D01*
X297067Y5364D02*
X296182Y4900D01*
X295972Y4225D01*
X296901Y2455D01*
X297576Y2244D01*
X298461Y2709D01*
X298671Y3384D01*
X297742Y5154D01*
X297067Y5364D01*
X299789Y3406D02*
X298395Y6061D01*
X299722Y6758D01*
X300397Y6548D01*
X300862Y5663D01*
X300652Y4988D01*
X299324Y4291D01*
X300209Y4756D02*
X301559Y4335D01*
X302820Y8385D02*
X301050Y7455D01*
X302444Y4800D01*
X304214Y5729D01*
X301747Y6128D02*
X302632Y6592D01*
X305476Y9779D02*
X303705Y8849D01*
X304402Y7522D01*
X305287Y7986D01*
X304402Y7522D01*
X305099Y6194D01*
X315468Y1695D02*
X314378Y4489D01*
X315775Y5034D01*
X316422Y4750D01*
X316786Y3819D01*
X316502Y3171D01*
X315105Y2626D01*
X316036Y2990D02*
X317331Y2422D01*
X319035Y6306D02*
X317172Y5579D01*
X318262Y2785D01*
X320125Y3512D01*
X317717Y4182D02*
X318648Y4545D01*
X322010Y6930D02*
X321363Y7214D01*
X320432Y6851D01*
X320148Y6203D01*
X320329Y5738D01*
X320977Y5454D01*
X321908Y5817D01*
X322555Y5533D01*
X322737Y5067D01*
X322453Y4420D01*
X321522Y4057D01*
X320874Y4341D01*
X324623Y8486D02*
X322760Y7759D01*
X323850Y4965D01*
X325713Y5692D01*
X323305Y6362D02*
X324236Y6725D01*
X325554Y8849D02*
X327416Y9576D01*
X326485Y9212D01*
X327575Y6418D01*
X65946Y349597D02*
X65966Y351263D01*
X65956Y350430D01*
X61791Y350479D01*
X60968Y351322D01*
X60978Y352155D01*
X61821Y352978D01*
X60929Y347990D02*
X65926Y347931D01*
X65897Y345432D01*
X65054Y344608D01*
X63388Y344628D01*
X62565Y345471D01*
X62594Y347970D01*
X60829Y339660D02*
X60869Y342992D01*
X64161Y339620D01*
X64994Y339610D01*
X65837Y340434D01*
X65857Y342100D01*
X65034Y342943D01*
X9900Y362299D02*
X11566Y363965D01*
X13232Y362299D01*
X18231Y364798D02*
X16565D01*
X17398D01*
Y360633D01*
X16565Y359800D01*
X15731D01*
X14898Y360633D01*
X23229Y364798D02*
X21563Y363965D01*
X19897Y362299D01*
Y360633D01*
X20730Y359800D01*
X22396D01*
X23229Y360633D01*
Y361466D01*
X22396Y362299D01*
X19897D01*
X1042Y438487D02*
X2727Y440133D01*
X4374Y438447D01*
X9401Y440887D02*
X7735Y440907D01*
X8568Y440897D01*
X8519Y436732D01*
X7676Y435909D01*
X6843Y435919D01*
X6020Y436762D01*
X14399Y440827D02*
X11067Y440867D01*
X11038Y438368D01*
X12714Y439181D01*
X13547Y439171D01*
X14370Y438328D01*
X14350Y436662D01*
X13507Y435839D01*
X11841Y435859D01*
X11018Y436702D01*
M02*
