M48
;Layer_Color=9474304
;FILE_FORMAT=4:4
METRIC,LZ
;TYPE=PLATED
T1F00S00C0.3000
T3F00S00C1.0000
T4F00S00C1.1000
T5F00S00C1.5000
T6F00S00C3.2000
%
T01
X003155Y00092
X003765Y00069
X0047525Y00094558
X00478Y00028
X004465Y00142
X004555Y001545
X00328Y00183
X003165Y00279621
X00584Y002485
X00611Y001485
X006545Y00158
X00616Y000985
Y000735
X003045Y000915
X002887Y000697
X002905Y00058
X00257Y000305
X002485Y00119
X00259314Y00133399
X00257Y001955
X002405Y001925
X00246Y002065
X00174789Y00207132
X001725Y00197
X00163Y002085
X001395Y00221
X001195Y00215
X001215Y001905
X00109Y001485
X0014Y00142
X0016Y001545
X00174281Y00139887
X001875Y00146
X00191293Y00153044
X001915Y00166
X00191101Y000965
X00088654Y00099846
X000905Y00106
X000705Y002365
X000595
X001155Y00255646
X00138Y00281
X001595
X000915Y00288
X00039379Y00301414
X002885Y00282
X002975Y002395
X00303Y00183
X002935Y00382
X002755Y003665
X00254Y003685
X00271345Y00413152
X001995Y004075
X001775Y004145
X001275Y004145
X00082Y004285
X000865Y003685
X00076Y00362
X00208Y003405
X0019Y004685
X00227Y00471
X00054Y005055
X00317Y004
X00483Y00329
X00586Y00403
X005785Y00414
X00596846Y00421654
X00588Y00438
X005675Y00436
X00622Y00444
T03
X006105Y00269
Y00314
X006755
Y00269
X002475Y000795
X002025
Y000145
X002475
T04
X003302Y000254
X003556
X00381
X004064
X004318
X004572
X00508
X005334
X005588
X005842
X006096
X00635
X0062065Y0012573
X0059525
X0056985
X0054445
X0051905
X0049365
X0046825
X0044285
X0041745
X0039205
X0036665
X0034125
X0031585
Y0020193
X0034125
X0036665
X0039205
X0041745
X0044285
X0046825
X0049365
X0051905
X0054445
X0056985
X0059525
X0062065
X0029045
Y0012573
X002794Y000254
X003048
X00167Y00088
X001416
X001162
X00045Y0032
Y003454
X000196
Y0032
X000167Y003791
X000421
Y004045
X000675
Y003791
X000167Y004045
X000156Y004565
X00041
Y004819
X000664
Y004565
X000156Y004819
X00146Y00446
Y004206
Y003952
Y003698
X0018796Y00508
X0021336
X0023876
X0026416
X0028956
X0031496
X0034036
X0036576
X0039116
X0041656
X004572
X004826
X00508
X005334
X005588
X005842
X006096
X00635
X00662Y00469
Y004436
Y004182
T05
X00021Y0003
Y00138
T06
X006604Y000762
X001397Y000254
X00132Y005105
X0066Y003635
M30
